<svg version="1.1" viewBox="0.0 0.0 1393.3490813648293 580.8267716535433" fill="none" stroke="none" stroke-linecap="square" stroke-miterlimit="10" xmlns:xlink="http://www.w3.org/1999/xlink" xmlns="http://www.w3.org/2000/svg"><clipPath id="p.0"><path d="m0 0l1393.3491 0l0 580.8268l-1393.3491 0l0 -580.8268z" clip-rule="nonzero"/></clipPath><g clip-path="url(#p.0)"><path fill="#000000" fill-opacity="0.0" d="m0 0l1393.3491 0l0 580.8268l-1393.3491 0z" fill-rule="evenodd"/><path fill="#f1cff3" fill-opacity="0.55" d="m133.91339 309.00262l0 0c0 -87.2088 73.41824 -157.90552 163.98425 -157.90552l0 0c43.491333 0 85.201355 16.636429 115.95438 46.249466c30.753021 29.613022 48.029877 69.7769 48.029877 111.65605l0 0c0 87.2088 -73.41824 157.90552 -163.98425 157.90552l0 0c-90.56601 0 -163.98425 -70.69672 -163.98425 -157.90552z" fill-rule="evenodd"/><path stroke="#000000" stroke-width="1.0" stroke-linejoin="round" stroke-linecap="butt" d="m133.91339 309.00262l0 0c0 -87.2088 73.41824 -157.90552 163.98425 -157.90552l0 0c43.491333 0 85.201355 16.636429 115.95438 46.249466c30.753021 29.613022 48.029877 69.7769 48.029877 111.65605l0 0c0 87.2088 -73.41824 157.90552 -163.98425 157.90552l0 0c-90.56601 0 -163.98425 -70.69672 -163.98425 -157.90552z" fill-rule="evenodd"/><path fill="#6fa8dc" fill-opacity="0.7813" d="m668.85565 316.16797l0 0c0 -87.2088 73.41821 -157.9055 163.98425 -157.9055l0 0c43.491333 0 85.201355 16.636429 115.954346 46.24945c30.753052 29.613037 48.029907 69.7769 48.029907 111.65605l0 0c0 87.2088 -73.418274 157.90552 -163.98425 157.90552l0 0c-90.56604 0 -163.98425 -70.69672 -163.98425 -157.90552z" fill-rule="evenodd"/><path stroke="#000000" stroke-width="1.0" stroke-linejoin="round" stroke-linecap="butt" d="m668.85565 316.16797l0 0c0 -87.2088 73.41821 -157.9055 163.98425 -157.9055l0 0c43.491333 0 85.201355 16.636429 115.954346 46.24945c30.753052 29.613037 48.029907 69.7769 48.029907 111.65605l0 0c0 87.2088 -73.418274 157.90552 -163.98425 157.90552l0 0c-90.56604 0 -163.98425 -70.69672 -163.98425 -157.90552z" fill-rule="evenodd"/><path fill="#ea9999" fill-opacity="0.5188" d="m507.29922 316.16797l0 0c0 -87.2088 73.41824 -157.9055 163.98422 -157.9055l0 0c43.491333 0 85.201355 16.636429 115.95441 46.24945c30.75299 29.613037 48.029846 69.7769 48.029846 111.65605l0 0c0 87.2088 -73.41821 157.90552 -163.98425 157.90552l0 0c-90.56598 0 -163.98422 -70.69672 -163.98422 -157.90552z" fill-rule="evenodd"/><path stroke="#000000" stroke-width="1.0" stroke-linejoin="round" stroke-linecap="butt" d="m507.29922 316.16797l0 0c0 -87.2088 73.41824 -157.9055 163.98422 -157.9055l0 0c43.491333 0 85.201355 16.636429 115.95441 46.24945c30.75299 29.613037 48.029846 69.7769 48.029846 111.65605l0 0c0 87.2088 -73.41821 157.90552 -163.98425 157.90552l0 0c-90.56598 0 -163.98422 -70.69672 -163.98422 -157.90552z" fill-rule="evenodd"/><path fill="#000000" fill-opacity="0.0" d="m340.6614 73.24672l180.85043 0l0 42.015747l-180.85043 0z" fill-rule="evenodd"/><path fill="#000000" d="m351.13016 100.16672l0 -13.359375l9.65625 0l0 1.578125l-7.875 0l0 4.09375l7.375 0l0 1.5625l-7.375 0l0 4.546875l8.1875 0l0 1.578125l-9.96875 0zm11.052948 0l5.171875 -6.953125l-4.5625 -6.40625l2.109375 0l2.421875 3.4375q0.75 1.0625 1.078125 1.625q0.4375 -0.71875 1.046875 -1.515625l2.6875 -3.546875l1.921875 0l-4.6875 6.296875l5.0625 7.0625l-2.1875 0l-3.359375 -4.765625q-0.28125 -0.40625 -0.59375 -0.890625q-0.4375 0.734375 -0.625 1.0l-3.359375 4.65625l-2.125 0zm13.802948 0l0 -13.359375l5.046875 0q1.328125 0 2.03125 0.125q0.96875 0.171875 1.640625 0.640625q0.671875 0.453125 1.078125 1.28125q0.40625 0.828125 0.40625 1.828125q0 1.703125 -1.09375 2.890625q-1.078125 1.171875 -3.921875 1.171875l-3.421875 0l0 5.421875l-1.765625 0zm1.765625 -7.0l3.453125 0q1.71875 0 2.4375 -0.640625q0.71875 -0.640625 0.71875 -1.796875q0 -0.84375 -0.421875 -1.4375q-0.421875 -0.59375 -1.125 -0.78125q-0.4375 -0.125 -1.640625 -0.125l-3.421875 0l0 4.78125zm10.599823 7.0l0 -13.359375l1.78125 0l0 11.78125l6.5625 0l0 1.578125l-8.34375 0zm9.922607 -6.5q0 -3.328125 1.78125 -5.203125q1.78125 -1.890625 4.609375 -1.890625q1.84375 0 3.328125 0.890625q1.484375 0.875 2.265625 2.46875q0.78125 1.578125 0.78125 3.578125q0 2.03125 -0.828125 3.640625q-0.8125 1.59375 -2.3125 2.421875q-1.5 0.828125 -3.25 0.828125q-1.875 0 -3.359375 -0.90625q-1.484375 -0.921875 -2.25 -2.5q-0.765625 -1.578125 -0.765625 -3.328125zm1.8125 0.015625q0 2.421875 1.296875 3.8125q1.296875 1.390625 3.265625 1.390625q2.0 0 3.28125 -1.40625q1.28125 -1.40625 1.28125 -3.984375q0 -1.625 -0.546875 -2.84375q-0.546875 -1.21875 -1.609375 -1.875q-1.0625 -0.671875 -2.375 -0.671875q-1.890625 0 -3.25 1.296875q-1.34375 1.28125 -1.34375 4.28125zm13.261414 6.484375l0 -13.359375l5.921875 0q1.78125 0 2.703125 0.359375q0.9375 0.359375 1.484375 1.28125q0.5625 0.90625 0.5625 2.015625q0 1.40625 -0.921875 2.390625q-0.921875 0.96875 -2.84375 1.234375q0.703125 0.34375 1.078125 0.671875q0.765625 0.703125 1.453125 1.765625l2.328125 3.640625l-2.21875 0l-1.765625 -2.78125q-0.78125 -1.203125 -1.28125 -1.828125q-0.5 -0.640625 -0.90625 -0.890625q-0.390625 -0.265625 -0.796875 -0.359375q-0.296875 -0.078125 -0.984375 -0.078125l-2.046875 0l0 5.9375l-1.765625 0zm1.765625 -7.453125l3.796875 0q1.21875 0 1.890625 -0.25q0.6875 -0.265625 1.046875 -0.8125q0.359375 -0.546875 0.359375 -1.1875q0 -0.953125 -0.6875 -1.5625q-0.6875 -0.609375 -2.1875 -0.609375l-4.21875 0l0 4.421875zm11.707336 7.453125l0 -13.359375l9.65625 0l0 1.578125l-7.875 0l0 4.09375l7.375 0l0 1.5625l-7.375 0l0 4.546875l8.1875 0l0 1.578125l-9.96875 0zm17.595612 0l0 -13.359375l5.046875 0q1.328125 0 2.03125 0.125q0.96875 0.171875 1.640625 0.640625q0.671875 0.453125 1.078125 1.28125q0.40625 0.828125 0.40625 1.828125q0 1.703125 -1.09375 2.890625q-1.078125 1.171875 -3.921875 1.171875l-3.421875 0l0 5.421875l-1.765625 0zm1.765625 -7.0l3.453125 0q1.71875 0 2.4375 -0.640625q0.71875 -0.640625 0.71875 -1.796875q0 -0.84375 -0.421875 -1.4375q-0.421875 -0.59375 -1.125 -0.78125q-0.4375 -0.125 -1.640625 -0.125l-3.421875 0l0 4.78125zm10.740448 7.0l0 -13.359375l1.765625 0l0 5.484375l6.9375 0l0 -5.484375l1.765625 0l0 13.359375l-1.765625 0l0 -6.296875l-6.9375 0l0 6.296875l-1.765625 0zm11.941711 0l5.125 -13.359375l1.90625 0l5.46875 13.359375l-2.015625 0l-1.546875 -4.046875l-5.59375 0l-1.46875 4.046875l-1.875 0zm3.859375 -5.484375l4.53125 0l-1.40625 -3.703125q-0.625 -1.6875 -0.9375 -2.765625q-0.265625 1.28125 -0.71875 2.546875l-1.46875 3.921875zm9.459198 1.1875l1.65625 -0.140625q0.125 1.0 0.546875 1.640625q0.4375 0.640625 1.34375 1.046875q0.921875 0.390625 2.0625 0.390625q1.0 0 1.78125 -0.296875q0.78125 -0.296875 1.15625 -0.8125q0.375 -0.53125 0.375 -1.15625q0 -0.625 -0.375 -1.09375q-0.359375 -0.46875 -1.1875 -0.796875q-0.546875 -0.203125 -2.390625 -0.640625q-1.828125 -0.453125 -2.5625 -0.84375q-0.96875 -0.5 -1.4375 -1.234375q-0.46875 -0.75 -0.46875 -1.671875q0 -1.0 0.578125 -1.875q0.578125 -0.890625 1.671875 -1.34375q1.109375 -0.453125 2.453125 -0.453125q1.484375 0 2.609375 0.484375q1.140625 0.46875 1.75 1.40625q0.609375 0.921875 0.65625 2.09375l-1.6875 0.125q-0.140625 -1.265625 -0.9375 -1.90625q-0.78125 -0.65625 -2.3125 -0.65625q-1.609375 0 -2.34375 0.59375q-0.734375 0.59375 -0.734375 1.421875q0 0.71875 0.53125 1.171875q0.5 0.46875 2.65625 0.96875q2.15625 0.484375 2.953125 0.84375q1.171875 0.53125 1.71875 1.359375q0.5625 0.828125 0.5625 1.90625q0 1.0625 -0.609375 2.015625q-0.609375 0.9375 -1.75 1.46875q-1.140625 0.515625 -2.578125 0.515625q-1.8125 0 -3.046875 -0.53125q-1.21875 -0.53125 -1.921875 -1.59375q-0.6875 -1.0625 -0.71875 -2.40625zm13.068573 4.296875l0 -13.359375l9.65625 0l0 1.578125l-7.875 0l0 4.09375l7.375 0l0 1.5625l-7.375 0l0 4.546875l8.1875 0l0 1.578125l-9.96875 0z" fill-rule="nonzero"/><path fill="#000000" fill-opacity="0.0" d="m521.51184 94.25459l213.54327 -3.7480316" fill-rule="evenodd"/><path stroke="#000000" stroke-width="2.0" stroke-linejoin="round" stroke-linecap="butt" d="m521.51184 94.25459l205.96448 -3.6150131" fill-rule="evenodd"/><path stroke="#000000" stroke-width="2.0" stroke-linecap="butt" d="m727.4186 87.35009l6.5789795 -0.115470886l0.115478516 6.578987l-6.5790405 0.115470886l-0.11541748 -6.578987z" fill-rule="nonzero"/><path fill="#000000" fill-opacity="0.0" d="m148.06299 94.25459l192.59842 0" fill-rule="evenodd"/><path stroke="#000000" stroke-width="3.0" stroke-linejoin="round" stroke-linecap="butt" d="m159.43298 94.25459l181.22842 0" fill-rule="evenodd"/><path stroke="#000000" stroke-width="3.0" stroke-linecap="butt" d="m159.433 99.18959l-9.87001 0l0 -9.869995l9.87001 0l0 9.869995z" fill-rule="nonzero"/><path fill="#000000" fill-opacity="0.0" d="m513.8373 267.85303l147.9685 0l0 64.62991l-147.9685 0z" fill-rule="evenodd"/><path fill="#000000" d="m528.1498 294.97614q-1.3125 0 -3.8125 -0.203125l0.21875 -4.53125l-0.21875 -8.34375l4.96875 0q2.53125 0 3.9375 1.515625q1.421875 1.515625 1.421875 4.203125q0 3.390625 -1.75 5.375q-1.75 1.984375 -4.765625 1.984375zm0.484375 -11.0625q-1.21875 0 -1.734375 0.015625l-0.1875 6.0l0.140625 3.015625q1.5625 0.109375 2.109375 0.109375q1.46875 0 2.3125 -1.1875q0.859375 -1.203125 0.859375 -3.46875q0 -2.28125 -0.84375 -3.375q-0.828125 -1.109375 -2.65625 -1.109375zm9.544006 10.859375q-1.109375 0 -1.8125 -0.703125q-0.6875 -0.703125 -0.6875 -1.875q0 -1.1875 1.078125 -2.046875q1.078125 -0.875 2.625 -0.875l1.265625 0l0 -0.328125q0 -0.90625 -0.375 -1.234375q-0.359375 -0.34375 -1.390625 -0.34375q-0.421875 0 -1.015625 0.1875q-0.59375 0.171875 -1.3125 0.546875l-0.546875 -1.484375q0.796875 -0.5625 1.9375 -1.0q1.15625 -0.453125 1.90625 -0.453125q2.9375 0 2.9375 2.84375l0 3.65625q0 1.03125 0.640625 2.328125l-1.96875 0.84375q-0.46875 -0.90625 -0.6875 -1.609375q-1.03125 1.546875 -2.59375 1.546875zm0.78125 -1.90625q0.75 0 1.6875 -0.765625l0 -1.25q-0.984375 -0.21875 -1.59375 -0.21875q-1.171875 0 -1.171875 1.046875q0 0.53125 0.296875 0.859375q0.296875 0.328125 0.78125 0.328125zm6.827881 -7.125l0 -2.03125l2.515625 -0.484375l-0.25 2.515625l2.265625 0l-0.203125 1.53125l-2.125 0l-0.09375 3.90625q0 0.875 0.15625 1.171875q0.171875 0.28125 0.625 0.28125q0.453125 0 1.1875 -0.203125l0.109375 1.3125q-1.21875 1.03125 -2.15625 1.03125q-0.9375 0 -1.53125 -0.671875q-0.59375 -0.6875 -0.59375 -1.796875l0.109375 -2.078125l-0.015625 -2.953125l-1.296875 0l0.21875 -1.53125l1.078125 0zm7.763611 9.03125q-1.109375 0 -1.8125 -0.703125q-0.6875 -0.703125 -0.6875 -1.875q0 -1.1875 1.078125 -2.046875q1.078125 -0.875 2.625 -0.875l1.265625 0l0 -0.328125q0 -0.90625 -0.375 -1.234375q-0.359375 -0.34375 -1.390625 -0.34375q-0.421875 0 -1.015625 0.1875q-0.59375 0.171875 -1.3125 0.546875l-0.546875 -1.484375q0.796875 -0.5625 1.9375 -1.0q1.15625 -0.453125 1.90625 -0.453125q2.9375 0 2.9375 2.84375l0 3.65625q0 1.03125 0.640625 2.328125l-1.96875 0.84375q-0.46875 -0.90625 -0.6875 -1.609375q-1.03125 1.546875 -2.59375 1.546875zm0.78125 -1.90625q0.75 0 1.6875 -0.765625l0 -1.25q-0.984375 -0.21875 -1.59375 -0.21875q-1.171875 0 -1.171875 1.046875q0 0.53125 0.296875 0.859375q0.296875 0.328125 0.78125 0.328125z" fill-rule="nonzero"/><path fill="#000000" d="m528.38416 304.298q1.78125 0 2.84375 1.015625q1.0625 1.015625 1.0625 2.796875q0 1.765625 -1.34375 3.03125q-1.34375 1.25 -3.28125 1.25l-1.0625 0l0.234375 4.78125l-2.5 0l0.21875 -4.53125l-0.21875 -8.34375l4.046875 0zm-0.671875 1.890625l-0.921875 0l-0.125 4.40625l1.265625 0q0.9375 0 1.4375 -0.609375q0.515625 -0.625 0.515625 -1.765625q0 -2.03125 -2.171875 -2.03125zm5.4960327 1.96875l2.265625 -0.484375q0.15625 1.4375 0.21875 2.734375q1.703125 -2.640625 3.1875 -2.640625l-0.203125 2.90625q-1.078125 0 -1.703125 0.203125q-0.625 0.203125 -1.28125 0.78125l0 0.671875l0.203125 4.375l-2.5 0.46875l0.21875 -4.53125q-0.0625 -2.5 -0.40625 -4.484375zm10.204102 7.109375q0.546875 0 1.140625 -0.28125q0.59375 -0.28125 0.9375 -0.5625l0.328125 -0.265625l0.859375 1.03125q-0.1875 0.328125 -0.578125 0.734375q-0.390625 0.40625 -0.796875 0.703125q-0.390625 0.28125 -1.0625 0.515625q-0.65625 0.234375 -1.359375 0.234375q-1.515625 0 -2.46875 -1.140625q-0.953125 -1.15625 -0.953125 -2.96875q0 -2.265625 1.328125 -3.984375q1.328125 -1.71875 3.09375 -1.71875q1.359375 0 2.109375 0.765625q0.765625 0.765625 0.765625 2.140625q0 0.828125 -0.28125 1.875l-0.375 0.390625l-4.65625 0.421875q0.3125 2.109375 1.96875 2.109375zm0 -5.78125q-0.8125 0 -1.375 0.671875q-0.5625 0.65625 -0.65625 1.6875l3.171875 -0.40625q0.0625 -0.421875 0.0625 -0.703125q0 -1.25 -1.203125 -1.25zm9.94574 -1.734375q1.1875 0 2.0 1.046875q0.8125 1.046875 0.8125 2.8125q0 2.484375 -1.28125 4.03125q-1.265625 1.53125 -3.171875 1.53125q-0.390625 0 -0.875 -0.0625l0.09375 3.5625l-2.5625 0.46875l0.25 -8.5l0.015625 0q-0.078125 -2.5 -0.40625 -4.484375l2.25 -0.484375q0.109375 1.0 0.1875 1.96875q0.046875 -0.09375 0.390625 -0.515625q0.34375 -0.421875 1.015625 -0.890625q0.671875 -0.484375 1.28125 -0.484375zm-0.734375 2.421875q-0.984375 0 -1.90625 0.546875l0 1.609375l0.0625 2.65625q1.015625 0.171875 1.53125 0.171875q1.796875 0 1.796875 -2.484375q0 -2.5 -1.484375 -2.5zm4.8936157 -2.015625l2.265625 -0.484375q0.15625 1.4375 0.21875 2.734375q1.703125 -2.640625 3.1875 -2.640625l-0.203125 2.90625q-1.078125 0 -1.703125 0.203125q-0.625 0.203125 -1.28125 0.78125l0 0.671875l0.203125 4.375l-2.5 0.46875l0.21875 -4.53125q-0.0625 -2.5 -0.40625 -4.484375zm6.2822876 5.109375q0 -2.375 1.28125 -4.03125q1.296875 -1.671875 3.015625 -1.671875q1.734375 0 2.6875 1.125q0.96875 1.109375 0.96875 2.96875q0 2.453125 -1.25 4.09375q-1.234375 1.625 -3.109375 1.625q-1.546875 0 -2.578125 -1.15625q-1.015625 -1.171875 -1.015625 -2.953125zm5.859375 -0.640625q0 -2.703125 -1.84375 -2.703125q-1.921875 0 -1.921875 2.53125q0 1.328125 0.53125 2.078125q0.546875 0.734375 1.4375 0.734375q0.890625 0 1.34375 -0.671875q0.453125 -0.6875 0.453125 -1.96875zm6.8985596 -2.640625q-0.8125 0 -1.265625 0.59375q-0.4375 0.59375 -0.4375 1.8125q0 1.203125 0.453125 1.9375q0.453125 0.734375 1.328125 0.734375q0.453125 0 0.875 -0.28125q0.4375 -0.28125 0.65625 -0.5625l0.203125 -0.296875l0.9375 0.96875q-0.046875 0.09375 -0.140625 0.265625q-0.078125 0.171875 -0.40625 0.609375q-0.328125 0.421875 -0.703125 0.75q-0.359375 0.328125 -0.9375 0.59375q-0.578125 0.265625 -1.203125 0.265625q-1.40625 0 -2.28125 -1.140625q-0.875 -1.140625 -0.875 -2.96875q0 -2.265625 1.328125 -3.984375q1.328125 -1.71875 3.09375 -1.71875q0.546875 0 1.078125 0.15625q0.546875 0.15625 1.109375 0.5l-1.3125 2.296875q-0.671875 -0.53125 -1.5 -0.53125zm7.338928 5.28125q0.546875 0 1.140625 -0.28125q0.59375 -0.28125 0.9375 -0.5625l0.328125 -0.265625l0.859375 1.03125q-0.1875 0.328125 -0.578125 0.734375q-0.390625 0.40625 -0.796875 0.703125q-0.390625 0.28125 -1.0625 0.515625q-0.65625 0.234375 -1.359375 0.234375q-1.515625 0 -2.46875 -1.140625q-0.953125 -1.15625 -0.953125 -2.96875q0 -2.265625 1.328125 -3.984375q1.328125 -1.71875 3.09375 -1.71875q1.359375 0 2.109375 0.765625q0.765625 0.765625 0.765625 2.140625q0 0.828125 -0.28125 1.875l-0.375 0.390625l-4.65625 0.421875q0.3125 2.109375 1.96875 2.109375zm0 -5.78125q-0.8125 0 -1.375 0.671875q-0.5625 0.65625 -0.65625 1.6875l3.171875 -0.40625q0.0625 -0.421875 0.0625 -0.703125q0 -1.25 -1.203125 -1.25zm7.7894287 5.953125q0.96875 0 0.96875 -0.859375q0 -0.296875 -0.421875 -0.5625q-0.421875 -0.265625 -1.03125 -0.515625q-0.609375 -0.265625 -1.21875 -0.59375q-0.59375 -0.328125 -1.015625 -0.90625q-0.421875 -0.578125 -0.421875 -1.328125q0 -1.25 1.09375 -2.171875q1.109375 -0.9375 2.546875 -0.9375q0.671875 0 1.3125 0.15625q0.640625 0.15625 1.234375 0.5l-1.25 2.28125q-0.125 -0.125 -0.328125 -0.28125q-0.203125 -0.171875 -0.78125 -0.4375q-0.5625 -0.28125 -1.0 -0.28125q-0.4375 0 -0.671875 0.203125q-0.234375 0.1875 -0.234375 0.546875q0 0.34375 0.640625 0.6875q0.640625 0.34375 1.40625 0.640625q0.765625 0.28125 1.40625 0.9375q0.65625 0.65625 0.65625 1.578125q0 1.3125 -1.078125 2.296875q-1.078125 0.984375 -2.46875 0.984375q-0.90625 0 -1.6875 -0.390625q-0.765625 -0.390625 -1.09375 -0.78125l-0.34375 -0.390625l1.484375 -1.71875q0.109375 0.15625 0.3125 0.375q0.203125 0.21875 0.8125 0.59375q0.609375 0.375 1.171875 0.375zm7.350586 0q0.96875 0 0.96875 -0.859375q0 -0.296875 -0.421875 -0.5625q-0.421875 -0.265625 -1.03125 -0.515625q-0.609375 -0.265625 -1.21875 -0.59375q-0.59375 -0.328125 -1.015625 -0.90625q-0.421875 -0.578125 -0.421875 -1.328125q0 -1.25 1.09375 -2.171875q1.109375 -0.9375 2.546875 -0.9375q0.671875 0 1.3125 0.15625q0.640625 0.15625 1.234375 0.5l-1.25 2.28125q-0.125 -0.125 -0.328125 -0.28125q-0.203125 -0.171875 -0.78125 -0.4375q-0.5625 -0.28125 -1.0 -0.28125q-0.4375 0 -0.671875 0.203125q-0.234375 0.1875 -0.234375 0.546875q0 0.34375 0.640625 0.6875q0.640625 0.34375 1.40625 0.640625q0.765625 0.28125 1.40625 0.9375q0.65625 0.65625 0.65625 1.578125q0 1.3125 -1.078125 2.296875q-1.078125 0.984375 -2.46875 0.984375q-0.90625 0 -1.6875 -0.390625q-0.765625 -0.390625 -1.09375 -0.78125l-0.34375 -0.390625l1.484375 -1.71875q0.109375 0.15625 0.3125 0.375q0.203125 0.21875 0.8125 0.59375q0.609375 0.375 1.171875 0.375zm7.0224 -7.765625l-0.21875 4.65625l0.203125 4.375l-2.5 0.46875l0.21875 -4.53125l-0.203125 -4.5l2.5 -0.46875zm-2.625 -2.734375q0 -0.625 0.484375 -1.109375q0.484375 -0.5 1.109375 -0.5q0.640625 0 0.96875 0.34375q0.34375 0.34375 0.34375 1.046875q0 0.6875 -0.484375 1.1875q-0.46875 0.484375 -1.09375 0.484375q-0.625 0 -0.984375 -0.40625q-0.34375 -0.421875 -0.34375 -1.046875zm10.098999 7.515625q0 -1.28125 -0.234375 -1.703125q-0.21875 -0.4375 -1.046875 -0.4375q-0.8125 0 -1.859375 0.640625l0 1.375l0.203125 4.375l-2.5 0.46875l0.21875 -4.53125q-0.0625 -2.5 -0.40625 -4.484375l2.265625 -0.484375q0.125 1.09375 0.1875 2.109375q0.265625 -0.375 0.625 -0.734375q0.359375 -0.359375 1.125 -0.8125q0.765625 -0.46875 1.609375 -0.46875q0.84375 0 1.421875 0.671875q0.578125 0.65625 0.578125 1.796875l-0.109375 2.09375l0.203125 4.46875l-2.515625 0.46875l0.234375 -4.8125zm3.6791382 6.5625q0 -1.640625 3.0625 -2.578125q-0.71875 -0.359375 -0.71875 -0.96875q0 -0.234375 0.1875 -0.46875q0.1875 -0.25 0.53125 -0.515625l0 -0.140625q-1.34375 0 -2.140625 -0.75q-0.78125 -0.75 -0.78125 -2.0q0 -1.625 1.3125 -2.828125q1.328125 -1.203125 3.140625 -1.203125q0.46875 0 1.359375 0.1875q0.90625 0.1875 1.765625 0.1875l1.4375 0l-0.1875 1.625l-1.40625 -0.171875q0.1875 0.546875 0.1875 1.234375q0 0.6875 -0.328125 1.375q-0.328125 0.671875 -0.78125 1.09375q-0.453125 0.40625 -0.921875 0.71875q-0.453125 0.296875 -0.78125 0.53125q-0.328125 0.234375 -0.328125 0.421875q0 0.359375 0.75 0.609375q1.984375 0.8125 2.671875 1.375q0.703125 0.546875 0.703125 1.375q0 1.375 -1.390625 2.265625q-1.390625 0.890625 -3.3125 0.890625q-1.921875 0 -2.984375 -0.625q-1.046875 -0.609375 -1.046875 -1.640625zm5.640625 -7.828125q0 -0.921875 -0.40625 -1.34375q-0.40625 -0.4375 -1.296875 -0.4375q-1.6875 0 -1.6875 1.671875q0 1.671875 1.8125 1.671875q1.578125 0 1.578125 -1.5625zm0.671875 7.21875q0 -0.34375 -0.359375 -0.640625q-0.34375 -0.28125 -1.265625 -0.671875q-1.359375 0.375 -1.875 0.6875q-0.515625 0.328125 -0.515625 0.78125q0 0.46875 0.515625 0.75q0.515625 0.296875 1.421875 0.296875q0.921875 0 1.5 -0.34375q0.578125 -0.328125 0.578125 -0.859375z" fill-rule="nonzero"/><path fill="#000000" fill-opacity="0.0" d="m849.8373 283.85303l147.9685 0l0 42.015747l-147.9685 0z" fill-rule="evenodd"/><path fill="#000000" d="m926.59064 304.9449l0.1875 0l2.71875 -7.078125l2.578125 0.078125l0.078125 8.015625l0.34375 4.8125l-2.515625 0l0.09375 -4.84375l-0.203125 -4.90625l-2.234375 6.171875l-2.296875 0.109375l-2.09375 -6.28125l-0.171875 4.90625l0.140625 4.84375l-2.3125 0l0.25 -4.53125l0.109375 -8.0l2.96875 -0.46875l2.359375 7.171875zm7.5455933 1.921875q0 -2.375 1.28125 -4.03125q1.296875 -1.671875 3.015625 -1.671875q1.734375 0 2.6875 1.125q0.96875 1.109375 0.96875 2.96875q0 2.453125 -1.25 4.09375q-1.234375 1.625 -3.109375 1.625q-1.546875 0 -2.578125 -1.15625q-1.015625 -1.171875 -1.015625 -2.953125zm5.859375 -0.640625q0 -2.703125 -1.84375 -2.703125q-1.921875 0 -1.921875 2.53125q0 1.328125 0.53125 2.078125q0.546875 0.734375 1.4375 0.734375q0.890625 0 1.34375 -0.671875q0.453125 -0.6875 0.453125 -1.96875zm8.61731 2.71875q-1.453125 1.828125 -2.515625 1.828125q-1.3125 0 -2.171875 -1.078125q-0.84375 -1.09375 -0.84375 -2.78125q0 -2.328125 1.296875 -3.9375q1.296875 -1.609375 3.171875 -1.609375l1.046875 0.15625l0 -0.359375l-0.21875 -4.359375l2.5625 -0.46875l-0.25 9.59375l0 1.640625q0 1.109375 0.5625 2.5625l-2.015625 0.84375q-0.546875 -1.125 -0.625 -2.03125zm-3.4375 -3.0q0 1.1875 0.4375 1.859375q0.4375 0.671875 1.265625 0.671875q0.828125 0 1.71875 -0.671875l0 -4.03125q-1.109375 -0.21875 -1.65625 -0.21875q-0.84375 0 -1.3125 0.59375q-0.453125 0.59375 -0.453125 1.796875zm11.2404175 2.921875q0.546875 0 1.140625 -0.28125q0.59375 -0.28125 0.9375 -0.5625l0.328125 -0.265625l0.859375 1.03125q-0.1875 0.328125 -0.578125 0.734375q-0.390625 0.40625 -0.796875 0.703125q-0.390625 0.28125 -1.0625 0.515625q-0.65625 0.234375 -1.359375 0.234375q-1.515625 0 -2.46875 -1.140625q-0.953125 -1.15625 -0.953125 -2.96875q0 -2.265625 1.328125 -3.984375q1.328125 -1.71875 3.09375 -1.71875q1.359375 0 2.109375 0.765625q0.765625 0.765625 0.765625 2.140625q0 0.828125 -0.28125 1.875l-0.375 0.390625l-4.65625 0.421875q0.3125 2.109375 1.96875 2.109375zm0 -5.78125q-0.8125 0 -1.375 0.671875q-0.5625 0.65625 -0.65625 1.6875l3.171875 -0.40625q0.0625 -0.421875 0.0625 -0.703125q0 -1.25 -1.203125 -1.25zm7.5238037 -6.75l-0.25 9.59375l0.203125 4.375l-2.515625 0.46875l0.234375 -4.53125l-0.234375 -9.4375l2.5625 -0.46875zm4.6575317 4.9375l-0.21875 4.65625l0.203125 4.375l-2.5 0.46875l0.21875 -4.53125l-0.203125 -4.5l2.5 -0.46875zm-2.625 -2.734375q0 -0.625 0.484375 -1.109375q0.484375 -0.5 1.109375 -0.5q0.640625 0 0.96875 0.34375q0.34375 0.34375 0.34375 1.046875q0 0.6875 -0.484375 1.1875q-0.46875 0.484375 -1.09375 0.484375q-0.625 0 -0.984375 -0.40625q-0.34375 -0.421875 -0.34375 -1.046875zm10.098999 7.515625q0 -1.28125 -0.234375 -1.703125q-0.21875 -0.4375 -1.046875 -0.4375q-0.8125 0 -1.859375 0.640625l0 1.375l0.203125 4.375l-2.5 0.46875l0.21875 -4.53125q-0.0625 -2.5 -0.40625 -4.484375l2.265625 -0.484375q0.125 1.09375 0.1875 2.109375q0.265625 -0.375 0.625 -0.734375q0.359375 -0.359375 1.125 -0.8125q0.765625 -0.46875 1.609375 -0.46875q0.84375 0 1.421875 0.671875q0.578125 0.65625 0.578125 1.796875l-0.109375 2.09375l0.203125 4.46875l-2.515625 0.46875l0.234375 -4.8125zm3.6791382 6.5625q0 -1.640625 3.0625 -2.578125q-0.71875 -0.359375 -0.71875 -0.96875q0 -0.234375 0.1875 -0.46875q0.1875 -0.25 0.53125 -0.515625l0 -0.140625q-1.34375 0 -2.140625 -0.75q-0.78125 -0.75 -0.78125 -2.0q0 -1.625 1.3125 -2.828125q1.328125 -1.203125 3.140625 -1.203125q0.46875 0 1.359375 0.1875q0.90625 0.1875 1.765625 0.1875l1.4375 0l-0.1875 1.625l-1.40625 -0.171875q0.1875 0.546875 0.1875 1.234375q0 0.6875 -0.328125 1.375q-0.328125 0.671875 -0.78125 1.09375q-0.453125 0.40625 -0.921875 0.71875q-0.453125 0.296875 -0.78125 0.53125q-0.328125 0.234375 -0.328125 0.421875q0 0.359375 0.75 0.609375q1.984375 0.8125 2.671875 1.375q0.703125 0.546875 0.703125 1.375q0 1.375 -1.390625 2.265625q-1.390625 0.890625 -3.3125 0.890625q-1.921875 0 -2.984375 -0.625q-1.046875 -0.609375 -1.046875 -1.640625zm5.640625 -7.828125q0 -0.921875 -0.40625 -1.34375q-0.40625 -0.4375 -1.296875 -0.4375q-1.6875 0 -1.6875 1.671875q0 1.671875 1.8125 1.671875q1.578125 0 1.578125 -1.5625zm0.671875 7.21875q0 -0.34375 -0.359375 -0.640625q-0.34375 -0.28125 -1.265625 -0.671875q-1.359375 0.375 -1.875 0.6875q-0.515625 0.328125 -0.515625 0.78125q0 0.46875 0.515625 0.75q0.515625 0.296875 1.421875 0.296875q0.921875 0 1.5 -0.34375q0.578125 -0.328125 0.578125 -0.859375z" fill-rule="nonzero"/><path fill="#000000" fill-opacity="0.0" d="m223.91339 276.68765l147.9685 0l0 64.629944l-147.9685 0z" fill-rule="evenodd"/><path fill="#000000" d="m238.22589 303.8108q-1.3125 0 -3.8125 -0.203125l0.21875 -4.53125l-0.21875 -8.34375l4.96875 0q2.53125 0 3.9375 1.515625q1.421875 1.515625 1.421875 4.203125q0 3.390625 -1.75 5.375q-1.75 1.984375 -4.765625 1.984375zm0.484375 -11.0625q-1.21875 0 -1.734375 0.015625l-0.1875 6.0l0.140625 3.015625q1.5625 0.109375 2.109375 0.109375q1.46875 0 2.3125 -1.1875q0.859375 -1.203125 0.859375 -3.46875q0 -2.28125 -0.84375 -3.375q-0.828125 -1.109375 -2.65625 -1.109375zm9.544006 10.859375q-1.109375 0 -1.8125 -0.703125q-0.6875 -0.703125 -0.6875 -1.875q0 -1.1875 1.078125 -2.046875q1.078125 -0.875 2.625 -0.875l1.265625 0l0 -0.328125q0 -0.90625 -0.375 -1.234375q-0.359375 -0.34375 -1.390625 -0.34375q-0.421875 0 -1.015625 0.1875q-0.59375 0.171875 -1.3125 0.546875l-0.546875 -1.484375q0.796875 -0.5625 1.9375 -1.0q1.15625 -0.453125 1.90625 -0.453125q2.9375 0 2.9375 2.84375l0 3.65625q0 1.03125 0.640625 2.328125l-1.96875 0.84375q-0.46875 -0.90625 -0.6875 -1.609375q-1.03125 1.546875 -2.59375 1.546875zm0.78125 -1.90625q0.75 0 1.6875 -0.765625l0 -1.25q-0.984375 -0.21875 -1.59375 -0.21875q-1.171875 0 -1.171875 1.046875q0 0.53125 0.296875 0.859375q0.296875 0.328125 0.78125 0.328125zm6.8279114 -7.125l0 -2.03125l2.515625 -0.484375l-0.25 2.515625l2.265625 0l-0.203125 1.53125l-2.125 0l-0.09375 3.90625q0 0.875 0.15625 1.171875q0.171875 0.28125 0.625 0.28125q0.453125 0 1.1875 -0.203125l0.109375 1.3125q-1.21875 1.03125 -2.15625 1.03125q-0.9375 0 -1.53125 -0.671875q-0.59375 -0.6875 -0.59375 -1.796875l0.109375 -2.078125l-0.015625 -2.953125l-1.296875 0l0.21875 -1.53125l1.078125 0zm7.7635803 9.03125q-1.109375 0 -1.8125 -0.703125q-0.6875 -0.703125 -0.6875 -1.875q0 -1.1875 1.078125 -2.046875q1.078125 -0.875 2.625 -0.875l1.265625 0l0 -0.328125q0 -0.90625 -0.375 -1.234375q-0.359375 -0.34375 -1.390625 -0.34375q-0.421875 0 -1.015625 0.1875q-0.59375 0.171875 -1.3125 0.546875l-0.546875 -1.484375q0.796875 -0.5625 1.9375 -1.0q1.15625 -0.453125 1.90625 -0.453125q2.9375 0 2.9375 2.84375l0 3.65625q0 1.03125 0.640625 2.328125l-1.96875 0.84375q-0.46875 -0.90625 -0.6875 -1.609375q-1.03125 1.546875 -2.59375 1.546875zm0.78125 -1.90625q0.75 0 1.6875 -0.765625l0 -1.25q-0.984375 -0.21875 -1.59375 -0.21875q-1.171875 0 -1.171875 1.046875q0 0.53125 0.296875 0.859375q0.296875 0.328125 0.78125 0.328125z" fill-rule="nonzero"/><path fill="#000000" d="m238.42902 323.67953l0.234375 0l0.921875 -3.21875l1.96875 -7.4375l2.25 0.328125l-2.21875 7.40625l-1.453125 5.09375l-3.453125 0.25l-1.328125 -4.984375l-2.15625 -7.625l2.640625 -0.46875l1.703125 7.203125l0.890625 3.453125zm9.237595 -7.171875l-0.21875 4.65625l0.203125 4.375l-2.5 0.46875l0.21875 -4.53125l-0.203125 -4.5l2.5 -0.46875zm-2.625 -2.734375q0 -0.625 0.484375 -1.109375q0.484375 -0.5 1.109375 -0.5q0.640625 0 0.96875 0.34375q0.34375 0.34375 0.34375 1.046875q0 0.6875 -0.484375 1.1875q-0.46875 0.484375 -1.09375 0.484375q-0.625 0 -0.984375 -0.40625q-0.34375 -0.421875 -0.34375 -1.046875zm7.505249 10.5q0.96875 0 0.96875 -0.859375q0 -0.296875 -0.421875 -0.5625q-0.421875 -0.265625 -1.03125 -0.515625q-0.609375 -0.265625 -1.21875 -0.59375q-0.59375 -0.328125 -1.015625 -0.90625q-0.421875 -0.578125 -0.421875 -1.328125q0 -1.25 1.09375 -2.171875q1.109375 -0.9375 2.546875 -0.9375q0.671875 0 1.3125 0.15625q0.640625 0.15625 1.234375 0.5l-1.25 2.28125q-0.125 -0.125 -0.328125 -0.28125q-0.203125 -0.171875 -0.78125 -0.4375q-0.5625 -0.28125 -1.0 -0.28125q-0.4375 0 -0.671875 0.203125q-0.234375 0.1875 -0.234375 0.546875q0 0.34375 0.640625 0.6875q0.640625 0.34375 1.40625 0.640625q0.765625 0.28125 1.40625 0.9375q0.65625 0.65625 0.65625 1.578125q0 1.3125 -1.078125 2.296875q-1.078125 0.984375 -2.46875 0.984375q-0.90625 0 -1.6875 -0.390625q-0.765625 -0.390625 -1.09375 -0.78125l-0.34375 -0.390625l1.484375 -1.71875q0.109375 0.15625 0.3125 0.375q0.203125 0.21875 0.8125 0.59375q0.609375 0.375 1.171875 0.375zm6.7724457 1.734375q-1.015625 0 -1.640625 -0.65625q-0.625 -0.671875 -0.625 -1.75l0.109375 -2.140625l-0.203125 -4.484375l2.5 -0.46875l-0.234375 5.671875q0 0.8125 0.28125 1.1875q0.296875 0.359375 0.921875 0.359375q0.640625 0 1.75 -0.625l0 -1.125l-0.203125 -4.90625l2.515625 -0.46875l-0.21875 4.671875l0.015625 1.53125q0 1.1875 0.625 2.40625l-1.9375 0.859375q-0.625 -1.21875 -0.75 -1.953125q-1.6875 1.890625 -2.90625 1.890625zm9.139679 0q-1.109375 0 -1.8125 -0.703125q-0.6875 -0.703125 -0.6875 -1.875q0 -1.1875 1.078125 -2.046875q1.078125 -0.875 2.625 -0.875l1.265625 0l0 -0.328125q0 -0.90625 -0.375 -1.234375q-0.359375 -0.34375 -1.390625 -0.34375q-0.421875 0 -1.015625 0.1875q-0.59375 0.171875 -1.3125 0.546875l-0.546875 -1.484375q0.796875 -0.5625 1.9375 -1.0q1.15625 -0.453125 1.90625 -0.453125q2.9375 0 2.9375 2.84375l0 3.65625q0 1.03125 0.640625 2.328125l-1.96875 0.84375q-0.46875 -0.90625 -0.6875 -1.609375q-1.03125 1.546875 -2.59375 1.546875zm0.78125 -1.90625q0.75 0 1.6875 -0.765625l0 -1.25q-0.984375 -0.21875 -1.59375 -0.21875q-1.171875 0 -1.171875 1.046875q0 0.53125 0.296875 0.859375q0.296875 0.328125 0.78125 0.328125zm8.656036 -12.53125l-0.25 9.59375l0.203125 4.375l-2.515625 0.46875l0.234375 -4.53125l-0.234375 -9.4375l2.5625 -0.46875zm4.6575317 4.9375l-0.21875 4.65625l0.203125 4.375l-2.5 0.46875l0.21875 -4.53125l-0.203125 -4.5l2.5 -0.46875zm-2.625 -2.734375q0 -0.625 0.484375 -1.109375q0.484375 -0.5 1.109375 -0.5q0.640625 0 0.96875 0.34375q0.34375 0.34375 0.34375 1.046875q0 0.6875 -0.484375 1.1875q-0.46875 0.484375 -1.09375 0.484375q-0.625 0 -0.984375 -0.40625q-0.34375 -0.421875 -0.34375 -1.046875zm4.364624 10.390625l3.9375 -5.625l-4.125 0.28125l0.421875 -2.34375l3.203125 0.203125l3.109375 -0.21875l-0.3125 1.9375l-3.953125 5.625l4.53125 -0.25l-0.421875 2.34375l-3.15625 -0.203125l-3.546875 0.203125l0.3125 -1.953125zm9.967163 1.84375q-1.109375 0 -1.8125 -0.703125q-0.6875 -0.703125 -0.6875 -1.875q0 -1.1875 1.078125 -2.046875q1.078125 -0.875 2.625 -0.875l1.265625 0l0 -0.328125q0 -0.90625 -0.375 -1.234375q-0.359375 -0.34375 -1.390625 -0.34375q-0.421875 0 -1.015625 0.1875q-0.59375 0.171875 -1.3125 0.546875l-0.546875 -1.484375q0.796875 -0.5625 1.9375 -1.0q1.15625 -0.453125 1.90625 -0.453125q2.9375 0 2.9375 2.84375l0 3.65625q0 1.03125 0.640625 2.328125l-1.96875 0.84375q-0.46875 -0.90625 -0.6875 -1.609375q-1.03125 1.546875 -2.59375 1.546875zm0.78125 -1.90625q0.75 0 1.6875 -0.765625l0 -1.25q-0.984375 -0.21875 -1.59375 -0.21875q-1.171875 0 -1.171875 1.046875q0 0.53125 0.296875 0.859375q0.296875 0.328125 0.78125 0.328125zm6.8279114 -7.125l0 -2.03125l2.515625 -0.484375l-0.25 2.515625l2.265625 0l-0.203125 1.53125l-2.125 0l-0.09375 3.90625q0 0.875 0.15625 1.171875q0.171875 0.28125 0.625 0.28125q0.453125 0 1.1875 -0.203125l0.109375 1.3125q-1.21875 1.03125 -2.15625 1.03125q-0.9375 0 -1.53125 -0.671875q-0.59375 -0.6875 -0.59375 -1.796875l0.109375 -2.078125l-0.015625 -2.953125l-1.296875 0l0.21875 -1.53125l1.078125 0zm8.388611 -0.46875l-0.21875 4.65625l0.203125 4.375l-2.5 0.46875l0.21875 -4.53125l-0.203125 -4.5l2.5 -0.46875zm-2.625 -2.734375q0 -0.625 0.484375 -1.109375q0.484375 -0.5 1.109375 -0.5q0.640625 0 0.96875 0.34375q0.34375 0.34375 0.34375 1.046875q0 0.6875 -0.484375 1.1875q-0.46875 0.484375 -1.09375 0.484375q-0.625 0 -0.984375 -0.40625q-0.34375 -0.421875 -0.34375 -1.046875zm4.114624 8.328125q0 -2.375 1.28125 -4.03125q1.296875 -1.671875 3.015625 -1.671875q1.734375 0 2.6875 1.125q0.96875 1.109375 0.96875 2.96875q0 2.453125 -1.25 4.09375q-1.234375 1.625 -3.109375 1.625q-1.546875 0 -2.578125 -1.15625q-1.015625 -1.171875 -1.015625 -2.953125zm5.859375 -0.640625q0 -2.703125 -1.84375 -2.703125q-1.921875 0 -1.921875 2.53125q0 1.328125 0.53125 2.078125q0.546875 0.734375 1.4375 0.734375q0.890625 0 1.34375 -0.671875q0.453125 -0.6875 0.453125 -1.96875zm9.11731 -0.171875q0 -1.28125 -0.234375 -1.703125q-0.21875 -0.4375 -1.046875 -0.4375q-0.8125 0 -1.859375 0.640625l0 1.375l0.203125 4.375l-2.5 0.46875l0.21875 -4.53125q-0.0625 -2.5 -0.40625 -4.484375l2.265625 -0.484375q0.125 1.09375 0.1875 2.109375q0.265625 -0.375 0.625 -0.734375q0.359375 -0.359375 1.125 -0.8125q0.765625 -0.46875 1.609375 -0.46875q0.84375 0 1.421875 0.671875q0.578125 0.65625 0.578125 1.796875l-0.109375 2.09375l0.203125 4.46875l-2.515625 0.46875l0.234375 -4.8125z" fill-rule="nonzero"/><path fill="#000000" fill-opacity="0.0" d="m697.8373 267.85303l147.9685 0l0 64.62991l-147.9685 0z" fill-rule="evenodd"/><path fill="#000000" d="m714.88416 283.898l-3.984375 0l-0.109375 3.4375l3.5625 0l-0.203125 1.96875l-3.40625 0l-0.03125 0.625l0.234375 4.84375l-2.609375 0l0.21875 -4.53125l-0.21875 -8.34375l6.75 0l-0.203125 2.0zm4.6366577 8.96875q0.546875 0 1.140625 -0.28125q0.59375 -0.28125 0.9375 -0.5625l0.328125 -0.265625l0.859375 1.03125q-0.1875 0.328125 -0.578125 0.734375q-0.390625 0.40625 -0.796875 0.703125q-0.390625 0.28125 -1.0625 0.515625q-0.65625 0.234375 -1.359375 0.234375q-1.515625 0 -2.46875 -1.140625q-0.953125 -1.15625 -0.953125 -2.96875q0 -2.265625 1.328125 -3.984375q1.328125 -1.71875 3.09375 -1.71875q1.359375 0 2.109375 0.765625q0.765625 0.765625 0.765625 2.140625q0 0.828125 -0.28125 1.875l-0.375 0.390625l-4.65625 0.421875q0.3125 2.109375 1.96875 2.109375zm0 -5.78125q-0.8125 0 -1.375 0.671875q-0.5625 0.65625 -0.65625 1.6875l3.171875 -0.40625q0.0625 -0.421875 0.0625 -0.703125q0 -1.25 -1.203125 -1.25zm6.8363647 7.6875q-1.109375 0 -1.8125 -0.703125q-0.6875 -0.703125 -0.6875 -1.875q0 -1.1875 1.078125 -2.046875q1.078125 -0.875 2.625 -0.875l1.265625 0l0 -0.328125q0 -0.90625 -0.375 -1.234375q-0.359375 -0.34375 -1.390625 -0.34375q-0.421875 0 -1.015625 0.1875q-0.59375 0.171875 -1.3125 0.546875l-0.546875 -1.484375q0.796875 -0.5625 1.9375 -1.0q1.15625 -0.453125 1.90625 -0.453125q2.9375 0 2.9375 2.84375l0 3.65625q0 1.03125 0.640625 2.328125l-1.96875 0.84375q-0.46875 -0.90625 -0.6875 -1.609375q-1.03125 1.546875 -2.59375 1.546875zm0.78125 -1.90625q0.75 0 1.6875 -0.765625l0 -1.25q-0.984375 -0.21875 -1.59375 -0.21875q-1.171875 0 -1.171875 1.046875q0 0.53125 0.296875 0.859375q0.296875 0.328125 0.78125 0.328125zm6.827881 -7.125l0 -2.03125l2.515625 -0.484375l-0.25 2.515625l2.265625 0l-0.203125 1.53125l-2.125 0l-0.09375 3.90625q0 0.875 0.15625 1.171875q0.171875 0.28125 0.625 0.28125q0.453125 0 1.1875 -0.203125l0.109375 1.3125q-1.21875 1.03125 -2.15625 1.03125q-0.9375 0 -1.53125 -0.671875q-0.59375 -0.6875 -0.59375 -1.796875l0.109375 -2.078125l-0.015625 -2.953125l-1.296875 0l0.21875 -1.53125l1.078125 0zm8.138611 9.03125q-1.015625 0 -1.640625 -0.65625q-0.625 -0.671875 -0.625 -1.75l0.109375 -2.140625l-0.203125 -4.484375l2.5 -0.46875l-0.234375 5.671875q0 0.8125 0.28125 1.1875q0.296875 0.359375 0.921875 0.359375q0.640625 0 1.75 -0.625l0 -1.125l-0.203125 -4.90625l2.515625 -0.46875l-0.21875 4.671875l0.015625 1.53125q0 1.1875 0.625 2.40625l-1.9375 0.859375q-0.625 -1.21875 -0.75 -1.953125q-1.6875 1.890625 -2.90625 1.890625zm7.0615845 -9.015625l2.265625 -0.484375q0.15625 1.4375 0.21875 2.734375q1.703125 -2.640625 3.1875 -2.640625l-0.203125 2.90625q-1.078125 0 -1.703125 0.203125q-0.625 0.203125 -1.28125 0.78125l0 0.671875l0.203125 4.375l-2.5 0.46875l0.21875 -4.53125q-0.0625 -2.5 -0.40625 -4.484375zm10.204102 7.109375q0.546875 0 1.140625 -0.28125q0.59375 -0.28125 0.9375 -0.5625l0.328125 -0.265625l0.859375 1.03125q-0.1875 0.328125 -0.578125 0.734375q-0.390625 0.40625 -0.796875 0.703125q-0.390625 0.28125 -1.0625 0.515625q-0.65625 0.234375 -1.359375 0.234375q-1.515625 0 -2.46875 -1.140625q-0.953125 -1.15625 -0.953125 -2.96875q0 -2.265625 1.328125 -3.984375q1.328125 -1.71875 3.09375 -1.71875q1.359375 0 2.109375 0.765625q0.765625 0.765625 0.765625 2.140625q0 0.828125 -0.28125 1.875l-0.375 0.390625l-4.65625 0.421875q0.3125 2.109375 1.96875 2.109375zm0 -5.78125q-0.8125 0 -1.375 0.671875q-0.5625 0.65625 -0.65625 1.6875l3.171875 -0.40625q0.0625 -0.421875 0.0625 -0.703125q0 -1.25 -1.203125 -1.25z" fill-rule="nonzero"/><path fill="#000000" d="m708.3373 317.173l0.21875 -4.53125l-0.21875 -8.34375l6.984375 0l-0.203125 2.0l-4.203125 0l-0.109375 3.296875l3.734375 0l-0.203125 1.984375l-3.59375 0l-0.03125 0.75l0.140625 2.859375l4.515625 0l-0.203125 1.984375l-6.828125 0zm14.178894 -4.71875q0 -1.28125 -0.234375 -1.703125q-0.21875 -0.4375 -1.046875 -0.4375q-0.8125 0 -1.859375 0.640625l0 1.375l0.203125 4.375l-2.5 0.46875l0.21875 -4.53125q-0.0625 -2.5 -0.40625 -4.484375l2.265625 -0.484375q0.125 1.09375 0.1875 2.109375q0.265625 -0.375 0.625 -0.734375q0.359375 -0.359375 1.125 -0.8125q0.765625 -0.46875 1.609375 -0.46875q0.84375 0 1.421875 0.671875q0.578125 0.65625 0.578125 1.796875l-0.109375 2.09375l0.203125 4.46875l-2.515625 0.46875l0.234375 -4.8125zm3.6790771 6.5625q0 -1.640625 3.0625 -2.578125q-0.71875 -0.359375 -0.71875 -0.96875q0 -0.234375 0.1875 -0.46875q0.1875 -0.25 0.53125 -0.515625l0 -0.140625q-1.34375 0 -2.140625 -0.75q-0.78125 -0.75 -0.78125 -2.0q0 -1.625 1.3125 -2.828125q1.328125 -1.203125 3.140625 -1.203125q0.46875 0 1.359375 0.1875q0.90625 0.1875 1.765625 0.1875l1.4375 0l-0.1875 1.625l-1.40625 -0.171875q0.1875 0.546875 0.1875 1.234375q0 0.6875 -0.328125 1.375q-0.328125 0.671875 -0.78125 1.09375q-0.453125 0.40625 -0.921875 0.71875q-0.453125 0.296875 -0.78125 0.53125q-0.328125 0.234375 -0.328125 0.421875q0 0.359375 0.75 0.609375q1.984375 0.8125 2.671875 1.375q0.703125 0.546875 0.703125 1.375q0 1.375 -1.390625 2.265625q-1.390625 0.890625 -3.3125 0.890625q-1.921875 0 -2.984375 -0.625q-1.046875 -0.609375 -1.046875 -1.640625zm5.640625 -7.828125q0 -0.921875 -0.40625 -1.34375q-0.40625 -0.4375 -1.296875 -0.4375q-1.6875 0 -1.6875 1.671875q0 1.671875 1.8125 1.671875q1.578125 0 1.578125 -1.5625zm0.671875 7.21875q0 -0.34375 -0.359375 -0.640625q-0.34375 -0.28125 -1.265625 -0.671875q-1.359375 0.375 -1.875 0.6875q-0.515625 0.328125 -0.515625 0.78125q0 0.46875 0.515625 0.75q0.515625 0.296875 1.421875 0.296875q0.921875 0 1.5 -0.34375q0.578125 -0.328125 0.578125 -0.859375zm6.321106 -10.734375l-0.21875 4.65625l0.203125 4.375l-2.5 0.46875l0.21875 -4.53125l-0.203125 -4.5l2.5 -0.46875zm-2.625 -2.734375q0 -0.625 0.484375 -1.109375q0.484375 -0.5 1.109375 -0.5q0.640625 0 0.96875 0.34375q0.34375 0.34375 0.34375 1.046875q0 0.6875 -0.484375 1.1875q-0.46875 0.484375 -1.09375 0.484375q-0.625 0 -0.984375 -0.40625q-0.34375 -0.421875 -0.34375 -1.046875zm10.098999 7.515625q0 -1.28125 -0.234375 -1.703125q-0.21875 -0.4375 -1.046875 -0.4375q-0.8125 0 -1.859375 0.640625l0 1.375l0.203125 4.375l-2.5 0.46875l0.21875 -4.53125q-0.0625 -2.5 -0.40625 -4.484375l2.265625 -0.484375q0.125 1.09375 0.1875 2.109375q0.265625 -0.375 0.625 -0.734375q0.359375 -0.359375 1.125 -0.8125q0.765625 -0.46875 1.609375 -0.46875q0.84375 0 1.421875 0.671875q0.578125 0.65625 0.578125 1.796875l-0.109375 2.09375l0.203125 4.46875l-2.515625 0.46875l0.234375 -4.8125zm7.694702 2.8125q0.546875 0 1.140625 -0.28125q0.59375 -0.28125 0.9375 -0.5625l0.328125 -0.265625l0.859375 1.03125q-0.1875 0.328125 -0.578125 0.734375q-0.390625 0.40625 -0.796875 0.703125q-0.390625 0.28125 -1.0625 0.515625q-0.65625 0.234375 -1.359375 0.234375q-1.515625 0 -2.46875 -1.140625q-0.953125 -1.15625 -0.953125 -2.96875q0 -2.265625 1.328125 -3.984375q1.328125 -1.71875 3.09375 -1.71875q1.359375 0 2.109375 0.765625q0.765625 0.765625 0.765625 2.140625q0 0.828125 -0.28125 1.875l-0.375 0.390625l-4.65625 0.421875q0.3125 2.109375 1.96875 2.109375zm0 -5.78125q-0.8125 0 -1.375 0.671875q-0.5625 0.65625 -0.65625 1.6875l3.171875 -0.40625q0.0625 -0.421875 0.0625 -0.703125q0 -1.25 -1.203125 -1.25zm8.32074 5.78125q0.546875 0 1.140625 -0.28125q0.59375 -0.28125 0.9375 -0.5625l0.328125 -0.265625l0.859375 1.03125q-0.1875 0.328125 -0.578125 0.734375q-0.390625 0.40625 -0.796875 0.703125q-0.390625 0.28125 -1.0625 0.515625q-0.65625 0.234375 -1.359375 0.234375q-1.515625 0 -2.46875 -1.140625q-0.953125 -1.15625 -0.953125 -2.96875q0 -2.265625 1.328125 -3.984375q1.328125 -1.71875 3.09375 -1.71875q1.359375 0 2.109375 0.765625q0.765625 0.765625 0.765625 2.140625q0 0.828125 -0.28125 1.875l-0.375 0.390625l-4.65625 0.421875q0.3125 2.109375 1.96875 2.109375zm0 -5.78125q-0.8125 0 -1.375 0.671875q-0.5625 0.65625 -0.65625 1.6875l3.171875 -0.40625q0.0625 -0.421875 0.0625 -0.703125q0 -1.25 -1.203125 -1.25zm4.7581787 -1.328125l2.265625 -0.484375q0.15625 1.4375 0.21875 2.734375q1.703125 -2.640625 3.1875 -2.640625l-0.203125 2.90625q-1.078125 0 -1.703125 0.203125q-0.625 0.203125 -1.28125 0.78125l0 0.671875l0.203125 4.375l-2.5 0.46875l0.21875 -4.53125q-0.0625 -2.5 -0.40625 -4.484375zm9.344727 -0.484375l-0.21875 4.65625l0.203125 4.375l-2.5 0.46875l0.21875 -4.53125l-0.203125 -4.5l2.5 -0.46875zm-2.625 -2.734375q0 -0.625 0.484375 -1.109375q0.484375 -0.5 1.109375 -0.5q0.640625 0 0.96875 0.34375q0.34375 0.34375 0.34375 1.046875q0 0.6875 -0.484375 1.1875q-0.46875 0.484375 -1.09375 0.484375q-0.625 0 -0.984375 -0.40625q-0.34375 -0.421875 -0.34375 -1.046875zm10.098999 7.515625q0 -1.28125 -0.234375 -1.703125q-0.21875 -0.4375 -1.046875 -0.4375q-0.8125 0 -1.859375 0.640625l0 1.375l0.203125 4.375l-2.5 0.46875l0.21875 -4.53125q-0.0625 -2.5 -0.40625 -4.484375l2.265625 -0.484375q0.125 1.09375 0.1875 2.109375q0.265625 -0.375 0.625 -0.734375q0.359375 -0.359375 1.125 -0.8125q0.765625 -0.46875 1.609375 -0.46875q0.84375 0 1.421875 0.671875q0.578125 0.65625 0.578125 1.796875l-0.109375 2.09375l0.203125 4.46875l-2.515625 0.46875l0.234375 -4.8125zm3.6791382 6.5625q0 -1.640625 3.0625 -2.578125q-0.71875 -0.359375 -0.71875 -0.96875q0 -0.234375 0.1875 -0.46875q0.1875 -0.25 0.53125 -0.515625l0 -0.140625q-1.34375 0 -2.140625 -0.75q-0.78125 -0.75 -0.78125 -2.0q0 -1.625 1.3125 -2.828125q1.328125 -1.203125 3.140625 -1.203125q0.46875 0 1.359375 0.1875q0.90625 0.1875 1.765625 0.1875l1.4375 0l-0.1875 1.625l-1.40625 -0.171875q0.1875 0.546875 0.1875 1.234375q0 0.6875 -0.328125 1.375q-0.328125 0.671875 -0.78125 1.09375q-0.453125 0.40625 -0.921875 0.71875q-0.453125 0.296875 -0.78125 0.53125q-0.328125 0.234375 -0.328125 0.421875q0 0.359375 0.75 0.609375q1.984375 0.8125 2.671875 1.375q0.703125 0.546875 0.703125 1.375q0 1.375 -1.390625 2.265625q-1.390625 0.890625 -3.3125 0.890625q-1.921875 0 -2.984375 -0.625q-1.046875 -0.609375 -1.046875 -1.640625zm5.640625 -7.828125q0 -0.921875 -0.40625 -1.34375q-0.40625 -0.4375 -1.296875 -0.4375q-1.6875 0 -1.6875 1.671875q0 1.671875 1.8125 1.671875q1.578125 0 1.578125 -1.5625zm0.671875 7.21875q0 -0.34375 -0.359375 -0.640625q-0.34375 -0.28125 -1.265625 -0.671875q-1.359375 0.375 -1.875 0.6875q-0.515625 0.328125 -0.515625 0.78125q0 0.46875 0.515625 0.75q0.515625 0.296875 1.421875 0.296875q0.921875 0 1.5 -0.34375q0.578125 -0.328125 0.578125 -0.859375z" fill-rule="nonzero"/><path fill="#000000" fill-opacity="0.0" d="m784.4514 69.98688l192.59845 0l0 42.015747l-192.59845 0z" fill-rule="evenodd"/><path fill="#000000" d="m794.84204 96.906876l0 -13.359375l2.65625 0l3.15625 9.453125q0.4375 1.328125 0.640625 1.984375q0.234375 -0.734375 0.703125 -2.140625l3.203125 -9.296875l2.375 0l0 13.359375l-1.703125 0l0 -11.171875l-3.875 11.171875l-1.59375 0l-3.859375 -11.375l0 11.375l-1.703125 0zm15.0564575 -6.5q0 -3.328125 1.78125 -5.203125q1.78125 -1.890625 4.609375 -1.890625q1.84375 0 3.328125 0.890625q1.484375 0.875 2.265625 2.46875q0.78125 1.578125 0.78125 3.578125q0 2.03125 -0.828125 3.640625q-0.8125 1.59375 -2.3125 2.421875q-1.5 0.828125 -3.25 0.828125q-1.875 0 -3.359375 -0.90625q-1.484375 -0.921875 -2.25 -2.5q-0.765625 -1.578125 -0.765625 -3.328125zm1.8125 0.015625q0 2.421875 1.296875 3.8125q1.296875 1.390625 3.265625 1.390625q2.0 0 3.28125 -1.40625q1.28125 -1.40625 1.28125 -3.984375q0 -1.625 -0.546875 -2.84375q-0.546875 -1.21875 -1.609375 -1.875q-1.0625 -0.671875 -2.375 -0.671875q-1.890625 0 -3.25 1.296875q-1.34375 1.28125 -1.34375 4.28125zm13.230164 6.484375l0 -13.359375l4.609375 0q1.546875 0 2.375 0.203125q1.140625 0.25 1.953125 0.953125q1.0625 0.890625 1.578125 2.28125q0.53125 1.390625 0.53125 3.171875q0 1.515625 -0.359375 2.703125q-0.359375 1.171875 -0.921875 1.9375q-0.546875 0.765625 -1.203125 1.21875q-0.65625 0.4375 -1.59375 0.671875q-0.9375 0.21875 -2.140625 0.21875l-4.828125 0zm1.765625 -1.578125l2.859375 0q1.3125 0 2.0625 -0.234375q0.75 -0.25 1.203125 -0.703125q0.625 -0.625 0.96875 -1.6875q0.359375 -1.0625 0.359375 -2.578125q0 -2.09375 -0.6875 -3.21875q-0.6875 -1.125 -1.671875 -1.5q-0.703125 -0.28125 -2.28125 -0.28125l-2.8125 0l0 10.203125zm11.738586 1.578125l0 -13.359375l9.65625 0l0 1.578125l-7.875 0l0 4.09375l7.375 0l0 1.5625l-7.375 0l0 4.546875l8.1875 0l0 1.578125l-9.96875 0zm12.3341675 0l0 -13.359375l1.78125 0l0 11.78125l6.5625 0l0 1.578125l-8.34375 0zm14.944458 0l0 -13.359375l5.046875 0q1.328125 0 2.03125 0.125q0.96875 0.171875 1.640625 0.640625q0.671875 0.453125 1.078125 1.28125q0.40625 0.828125 0.40625 1.828125q0 1.703125 -1.09375 2.890625q-1.078125 1.171875 -3.921875 1.171875l-3.421875 0l0 5.421875l-1.765625 0zm1.765625 -7.0l3.453125 0q1.71875 0 2.4375 -0.640625q0.71875 -0.640625 0.71875 -1.796875q0 -0.84375 -0.421875 -1.4375q-0.421875 -0.59375 -1.125 -0.78125q-0.4375 -0.125 -1.640625 -0.125l-3.421875 0l0 4.78125zm10.7404785 7.0l0 -13.359375l1.765625 0l0 5.484375l6.9375 0l0 -5.484375l1.765625 0l0 13.359375l-1.765625 0l0 -6.296875l-6.9375 0l0 6.296875l-1.765625 0zm11.94165 0l5.125 -13.359375l1.90625 0l5.46875 13.359375l-2.015625 0l-1.546875 -4.046875l-5.59375 0l-1.46875 4.046875l-1.875 0zm3.859375 -5.484375l4.53125 0l-1.40625 -3.703125q-0.625 -1.6875 -0.9375 -2.765625q-0.265625 1.28125 -0.71875 2.546875l-1.46875 3.921875zm9.4592285 1.1875l1.65625 -0.140625q0.125 1.0 0.546875 1.640625q0.4375 0.640625 1.34375 1.046875q0.921875 0.390625 2.0625 0.390625q1.0 0 1.78125 -0.296875q0.78125 -0.296875 1.15625 -0.8125q0.375 -0.53125 0.375 -1.15625q0 -0.625 -0.375 -1.09375q-0.359375 -0.46875 -1.1875 -0.796875q-0.546875 -0.203125 -2.390625 -0.640625q-1.828125 -0.453125 -2.5625 -0.84375q-0.96875 -0.5 -1.4375 -1.234375q-0.46875 -0.75 -0.46875 -1.671875q0 -1.0 0.578125 -1.875q0.578125 -0.890625 1.671875 -1.34375q1.109375 -0.453125 2.453125 -0.453125q1.484375 0 2.609375 0.484375q1.140625 0.46875 1.75 1.40625q0.609375 0.921875 0.65625 2.09375l-1.6875 0.125q-0.140625 -1.265625 -0.9375 -1.90625q-0.78125 -0.65625 -2.3125 -0.65625q-1.609375 0 -2.34375 0.59375q-0.734375 0.59375 -0.734375 1.421875q0 0.71875 0.53125 1.171875q0.5 0.46875 2.65625 0.96875q2.15625 0.484375 2.953125 0.84375q1.171875 0.53125 1.71875 1.359375q0.5625 0.828125 0.5625 1.90625q0 1.0625 -0.609375 2.015625q-0.609375 0.9375 -1.75 1.46875q-1.140625 0.515625 -2.578125 0.515625q-1.8125 0 -3.046875 -0.53125q-1.21875 -0.53125 -1.921875 -1.59375q-0.6875 -1.0625 -0.71875 -2.40625zm13.0685425 4.296875l0 -13.359375l9.65625 0l0 1.578125l-7.875 0l0 4.09375l7.375 0l0 1.5625l-7.375 0l0 4.546875l8.1875 0l0 1.578125l-9.96875 0z" fill-rule="nonzero"/><path fill="#000000" fill-opacity="0.0" d="m949.04987 90.490814l28.0 0.50393677" fill-rule="evenodd"/><path stroke="#000000" stroke-width="1.0" stroke-linejoin="round" stroke-linecap="butt" d="m949.04987 90.490814l24.210632 0.4357376" fill-rule="evenodd"/><path stroke="#000000" stroke-width="1.0" stroke-linecap="butt" d="m973.2901 89.281815l3.2894287 0.0592041l-0.0592041 3.2894669l-3.2894287 -0.0592041l0.0592041 -3.2894669z" fill-rule="nonzero"/><path fill="#000000" fill-opacity="0.0" d="m751.0341 91.49869l33.417297 -0.50393677" fill-rule="evenodd"/><path stroke="#000000" stroke-width="1.0" stroke-linejoin="round" stroke-linecap="butt" d="m754.82367 91.441536l29.627747 -0.44678497" fill-rule="evenodd"/><path stroke="#000000" stroke-width="1.0" stroke-linecap="butt" d="m754.8485 93.08636l-3.2896729 0.049606323l-0.049560547 -3.289627l3.2896118 -0.049606323l0.049621582 3.289627z" fill-rule="nonzero"/><path fill="#000000" fill-opacity="0.0" d="m204.66142 481.2467l231.40157 0l0 42.015747l-231.40157 0z" fill-rule="evenodd"/><path fill="#000000" d="m218.97392 508.36984q-1.3125 0 -3.8125 -0.203125l0.21875 -4.53125l-0.21875 -8.34375l4.96875 0q2.53125 0 3.9375 1.515625q1.421875 1.515625 1.421875 4.203125q0 3.390625 -1.75 5.375q-1.75 1.984375 -4.765625 1.984375zm0.484375 -11.0625q-1.21875 0 -1.734375 0.015625l-0.1875 6.0l0.140625 3.015625q1.5625 0.109375 2.109375 0.109375q1.46875 0 2.3125 -1.1875q0.859375 -1.203125 0.859375 -3.46875q0 -2.28125 -0.84375 -3.375q-0.828125 -1.109375 -2.65625 -1.109375zm9.544006 10.859375q-1.109375 0 -1.8125 -0.703125q-0.6875 -0.703125 -0.6875 -1.875q0 -1.1875 1.078125 -2.046875q1.078125 -0.875 2.625 -0.875l1.265625 0l0 -0.328125q0 -0.90625 -0.375 -1.234375q-0.359375 -0.34375 -1.390625 -0.34375q-0.421875 0 -1.015625 0.1875q-0.59375 0.171875 -1.3125 0.546875l-0.546875 -1.484375q0.796875 -0.5625 1.9375 -1.0q1.15625 -0.453125 1.90625 -0.453125q2.9375 0 2.9375 2.84375l0 3.65625q0 1.03125 0.640625 2.328125l-1.96875 0.84375q-0.46875 -0.90625 -0.6875 -1.609375q-1.03125 1.546875 -2.59375 1.546875zm0.78125 -1.90625q0.75 0 1.6875 -0.765625l0 -1.25q-0.984375 -0.21875 -1.59375 -0.21875q-1.171875 0 -1.171875 1.046875q0 0.53125 0.296875 0.859375q0.296875 0.328125 0.78125 0.328125zm6.8279114 -7.125l0 -2.03125l2.515625 -0.484375l-0.25 2.515625l2.265625 0l-0.203125 1.53125l-2.125 0l-0.09375 3.90625q0 0.875 0.15625 1.171875q0.171875 0.28125 0.625 0.28125q0.453125 0 1.1875 -0.203125l0.109375 1.3125q-1.21875 1.03125 -2.15625 1.03125q-0.9375 0 -1.53125 -0.671875q-0.59375 -0.6875 -0.59375 -1.796875l0.109375 -2.078125l-0.015625 -2.953125l-1.296875 0l0.21875 -1.53125l1.078125 0zm7.7635956 9.03125q-1.109375 0 -1.8125 -0.703125q-0.6875 -0.703125 -0.6875 -1.875q0 -1.1875 1.078125 -2.046875q1.078125 -0.875 2.625 -0.875l1.265625 0l0 -0.328125q0 -0.90625 -0.375 -1.234375q-0.359375 -0.34375 -1.390625 -0.34375q-0.421875 0 -1.015625 0.1875q-0.59375 0.171875 -1.3125 0.546875l-0.546875 -1.484375q0.796875 -0.5625 1.9375 -1.0q1.15625 -0.453125 1.90625 -0.453125q2.9375 0 2.9375 2.84375l0 3.65625q0 1.03125 0.640625 2.328125l-1.96875 0.84375q-0.46875 -0.90625 -0.6875 -1.609375q-1.03125 1.546875 -2.59375 1.546875zm0.78125 -1.90625q0.75 0 1.6875 -0.765625l0 -1.25q-0.984375 -0.21875 -1.59375 -0.21875q-1.171875 0 -1.171875 1.046875q0 0.53125 0.296875 0.859375q0.296875 0.328125 0.78125 0.328125zm13.310333 2.109375q-1.671875 0 -2.8281097 -1.015625q-1.140625 -1.03125 -1.140625 -2.546875l-0.1875 -9.140625l2.6874847 -0.46875l-0.296875 8.171875q0 1.3125 0.609375 2.046875q0.609375 0.71875 1.875 0.71875q1.265625 0 1.828125 -0.703125q0.5625 -0.71875 0.5625 -2.453125l-0.234375 -7.3125l2.609375 -0.46875l-0.203125 8.21875q0 2.1875 -1.46875 3.578125q-1.46875 1.375 -3.8125 1.375zm13.223358 -4.921875q0 -1.28125 -0.234375 -1.703125q-0.21875 -0.4375 -1.046875 -0.4375q-0.8125 0 -1.859375 0.640625l0 1.375l0.203125 4.375l-2.5 0.46875l0.21875 -4.53125q-0.0625 -2.5 -0.40625 -4.484375l2.265625 -0.484375q0.125 1.09375 0.1875 2.109375q0.265625 -0.375 0.625 -0.734375q0.359375 -0.359375 1.125 -0.8125q0.765625 -0.46875 1.609375 -0.46875q0.84375 0 1.421875 0.671875q0.578125 0.65625 0.578125 1.796875l-0.109375 2.09375l0.203125 4.46875l-2.515625 0.46875l0.234375 -4.8125zm9.257202 2.890625q-1.453125 1.828125 -2.515625 1.828125q-1.3125 0 -2.171875 -1.078125q-0.84375 -1.09375 -0.84375 -2.78125q0 -2.328125 1.296875 -3.9375q1.296875 -1.609375 3.171875 -1.609375l1.046875 0.15625l0 -0.359375l-0.21875 -4.359375l2.5625 -0.46875l-0.25 9.59375l0 1.640625q0 1.109375 0.5625 2.5625l-2.015625 0.84375q-0.546875 -1.125 -0.625 -2.03125zm-3.4375 -3.0q0 1.1875 0.4375 1.859375q0.4375 0.671875 1.265625 0.671875q0.828125 0 1.71875 -0.671875l0 -4.03125q-1.109375 -0.21875 -1.65625 -0.21875q-0.84375 0 -1.3125 0.59375q-0.453125 0.59375 -0.453125 1.796875zm11.240448 2.921875q0.546875 0 1.140625 -0.28125q0.59375 -0.28125 0.9375 -0.5625l0.328125 -0.265625l0.859375 1.03125q-0.1875 0.328125 -0.578125 0.734375q-0.390625 0.40625 -0.796875 0.703125q-0.390625 0.28125 -1.0625 0.515625q-0.65625 0.234375 -1.359375 0.234375q-1.515625 0 -2.46875 -1.140625q-0.953125 -1.15625 -0.953125 -2.96875q0 -2.265625 1.328125 -3.984375q1.328125 -1.71875 3.09375 -1.71875q1.359375 0 2.109375 0.765625q0.765625 0.765625 0.765625 2.140625q0 0.828125 -0.28125 1.875l-0.375 0.390625l-4.65625 0.421875q0.3125 2.109375 1.96875 2.109375zm0 -5.78125q-0.8125 0 -1.375 0.671875q-0.5625 0.65625 -0.65625 1.6875l3.171875 -0.40625q0.0625 -0.421875 0.0625 -0.703125q0 -1.25 -1.203125 -1.25zm4.7581787 -1.328125l2.265625 -0.484375q0.15625 1.4375 0.21875 2.734375q1.703125 -2.640625 3.1875 -2.640625l-0.203125 2.90625q-1.078125 0 -1.703125 0.203125q-0.625 0.203125 -1.28125 0.78125l0 0.671875l0.203125 4.375l-2.5 0.46875l0.21875 -4.53125q-0.0625 -2.5 -0.40625 -4.484375zm9.672882 7.28125q0.96875 0 0.96875 -0.859375q0 -0.296875 -0.421875 -0.5625q-0.421875 -0.265625 -1.03125 -0.515625q-0.609375 -0.265625 -1.21875 -0.59375q-0.59375 -0.328125 -1.015625 -0.90625q-0.421875 -0.578125 -0.421875 -1.328125q0 -1.25 1.09375 -2.171875q1.109375 -0.9375 2.546875 -0.9375q0.671875 0 1.3125 0.15625q0.640625 0.15625 1.234375 0.5l-1.25 2.28125q-0.125 -0.125 -0.328125 -0.28125q-0.203125 -0.171875 -0.78125 -0.4375q-0.5625 -0.28125 -1.0 -0.28125q-0.4375 0 -0.671875 0.203125q-0.234375 0.1875 -0.234375 0.546875q0 0.34375 0.640625 0.6875q0.640625 0.34375 1.40625 0.640625q0.765625 0.28125 1.40625 0.9375q0.65625 0.65625 0.65625 1.578125q0 1.3125 -1.078125 2.296875q-1.078125 0.984375 -2.46875 0.984375q-0.90625 0 -1.6875 -0.390625q-0.765625 -0.390625 -1.09375 -0.78125l-0.34375 -0.390625l1.484375 -1.71875q0.109375 0.15625 0.3125 0.375q0.203125 0.21875 0.8125 0.59375q0.609375 0.375 1.171875 0.375zm5.256836 -7.296875l0 -2.03125l2.515625 -0.484375l-0.25 2.515625l2.265625 0l-0.203125 1.53125l-2.125 0l-0.09375 3.90625q0 0.875 0.15625 1.171875q0.171875 0.28125 0.625 0.28125q0.453125 0 1.1875 -0.203125l0.109375 1.3125q-1.21875 1.03125 -2.15625 1.03125q-0.9375 0 -1.53125 -0.671875q-0.59375 -0.6875 -0.59375 -1.796875l0.109375 -2.078125l-0.015625 -2.953125l-1.296875 0l0.21875 -1.53125l1.078125 0zm7.7635803 9.03125q-1.109375 0 -1.8125 -0.703125q-0.6875 -0.703125 -0.6875 -1.875q0 -1.1875 1.078125 -2.046875q1.078125 -0.875 2.625 -0.875l1.265625 0l0 -0.328125q0 -0.90625 -0.375 -1.234375q-0.359375 -0.34375 -1.390625 -0.34375q-0.421875 0 -1.015625 0.1875q-0.59375 0.171875 -1.3125 0.546875l-0.546875 -1.484375q0.796875 -0.5625 1.9375 -1.0q1.15625 -0.453125 1.90625 -0.453125q2.9375 0 2.9375 2.84375l0 3.65625q0 1.03125 0.640625 2.328125l-1.96875 0.84375q-0.46875 -0.90625 -0.6875 -1.609375q-1.03125 1.546875 -2.59375 1.546875zm0.78125 -1.90625q0.75 0 1.6875 -0.765625l0 -1.25q-0.984375 -0.21875 -1.59375 -0.21875q-1.171875 0 -1.171875 1.046875q0 0.53125 0.296875 0.859375q0.296875 0.328125 0.78125 0.328125zm11.515411 -2.8125q0 -1.28125 -0.234375 -1.703125q-0.21875 -0.4375 -1.046875 -0.4375q-0.8125 0 -1.859375 0.640625l0 1.375l0.203125 4.375l-2.5 0.46875l0.21875 -4.53125q-0.0625 -2.5 -0.40625 -4.484375l2.265625 -0.484375q0.125 1.09375 0.1875 2.109375q0.265625 -0.375 0.625 -0.734375q0.359375 -0.359375 1.125 -0.8125q0.765625 -0.46875 1.609375 -0.46875q0.84375 0 1.421875 0.671875q0.578125 0.65625 0.578125 1.796875l-0.109375 2.09375l0.203125 4.46875l-2.515625 0.46875l0.234375 -4.8125zm9.257233 2.890625q-1.453125 1.828125 -2.515625 1.828125q-1.3125 0 -2.171875 -1.078125q-0.84375 -1.09375 -0.84375 -2.78125q0 -2.328125 1.296875 -3.9375q1.296875 -1.609375 3.171875 -1.609375l1.046875 0.15625l0 -0.359375l-0.21875 -4.359375l2.5625 -0.46875l-0.25 9.59375l0 1.640625q0 1.109375 0.5625 2.5625l-2.015625 0.84375q-0.546875 -1.125 -0.625 -2.03125zm-3.4375 -3.0q0 1.1875 0.4375 1.859375q0.4375 0.671875 1.265625 0.671875q0.828125 0 1.71875 -0.671875l0 -4.03125q-1.109375 -0.21875 -1.65625 -0.21875q-0.84375 0 -1.3125 0.59375q-0.453125 0.59375 -0.453125 1.796875zm10.3810425 -4.671875l-0.21875 4.65625l0.203125 4.375l-2.5 0.46875l0.21875 -4.53125l-0.203125 -4.5l2.5 -0.46875zm-2.625 -2.734375q0 -0.625 0.484375 -1.109375q0.484375 -0.5 1.109375 -0.5q0.640625 0 0.96875 0.34375q0.34375 0.34375 0.34375 1.046875q0 0.6875 -0.484375 1.1875q-0.46875 0.484375 -1.09375 0.484375q-0.625 0 -0.984375 -0.40625q-0.34375 -0.421875 -0.34375 -1.046875zm10.098999 7.515625q0 -1.28125 -0.234375 -1.703125q-0.21875 -0.4375 -1.046875 -0.4375q-0.8125 0 -1.859375 0.640625l0 1.375l0.203125 4.375l-2.5 0.46875l0.21875 -4.53125q-0.0625 -2.5 -0.40625 -4.484375l2.265625 -0.484375q0.125 1.09375 0.1875 2.109375q0.265625 -0.375 0.625 -0.734375q0.359375 -0.359375 1.125 -0.8125q0.765625 -0.46875 1.609375 -0.46875q0.84375 0 1.421875 0.671875q0.578125 0.65625 0.578125 1.796875l-0.109375 2.09375l0.203125 4.46875l-2.515625 0.46875l0.234375 -4.8125zm3.6791077 6.5625q0 -1.640625 3.0625 -2.578125q-0.71875 -0.359375 -0.71875 -0.96875q0 -0.234375 0.1875 -0.46875q0.1875 -0.25 0.53125 -0.515625l0 -0.140625q-1.34375 0 -2.140625 -0.75q-0.78125 -0.75 -0.78125 -2.0q0 -1.625 1.3125 -2.828125q1.328125 -1.203125 3.140625 -1.203125q0.46875 0 1.359375 0.1875q0.90625 0.1875 1.765625 0.1875l1.4375 0l-0.1875 1.625l-1.40625 -0.171875q0.1875 0.546875 0.1875 1.234375q0 0.6875 -0.328125 1.375q-0.328125 0.671875 -0.78125 1.09375q-0.453125 0.40625 -0.921875 0.71875q-0.453125 0.296875 -0.78125 0.53125q-0.328125 0.234375 -0.328125 0.421875q0 0.359375 0.75 0.609375q1.984375 0.8125 2.671875 1.375q0.703125 0.546875 0.703125 1.375q0 1.375 -1.390625 2.265625q-1.390625 0.8905945 -3.3125 0.8905945q-1.921875 0 -2.984375 -0.6249695q-1.046875 -0.609375 -1.046875 -1.640625zm5.640625 -7.828125q0 -0.921875 -0.40625 -1.34375q-0.40625 -0.4375 -1.296875 -0.4375q-1.6875 0 -1.6875 1.671875q0 1.671875 1.8125 1.671875q1.578125 0 1.578125 -1.5625zm0.671875 7.21875q0 -0.34375 -0.359375 -0.640625q-0.34375 -0.28125 -1.265625 -0.671875q-1.359375 0.375 -1.875 0.6875q-0.515625 0.328125 -0.515625 0.78125q0 0.46875 0.515625 0.75q0.515625 0.296875 1.421875 0.296875q0.921875 0 1.5 -0.34375q0.578125 -0.328125 0.578125 -0.859375z" fill-rule="nonzero"/><path fill="#000000" fill-opacity="0.0" d="m540.66144 481.2467l213.54327 0l0 42.015747l-213.54327 0z" fill-rule="evenodd"/><path fill="#000000" d="m554.97394 508.36984q-1.3125 0 -3.8125 -0.203125l0.21875 -4.53125l-0.21875 -8.34375l4.96875 0q2.53125 0 3.9375 1.515625q1.421875 1.515625 1.421875 4.203125q0 3.390625 -1.75 5.375q-1.75 1.984375 -4.765625 1.984375zm0.484375 -11.0625q-1.21875 0 -1.734375 0.015625l-0.1875 6.0l0.140625 3.015625q1.5625 0.109375 2.109375 0.109375q1.46875 0 2.3125 -1.1875q0.859375 -1.203125 0.859375 -3.46875q0 -2.28125 -0.84375 -3.375q-0.828125 -1.109375 -2.65625 -1.109375zm9.544006 10.859375q-1.109375 0 -1.8125 -0.703125q-0.6875 -0.703125 -0.6875 -1.875q0 -1.1875 1.078125 -2.046875q1.078125 -0.875 2.625 -0.875l1.265625 0l0 -0.328125q0 -0.90625 -0.375 -1.234375q-0.359375 -0.34375 -1.390625 -0.34375q-0.421875 0 -1.015625 0.1875q-0.59375 0.171875 -1.3125 0.546875l-0.546875 -1.484375q0.796875 -0.5625 1.9375 -1.0q1.15625 -0.453125 1.90625 -0.453125q2.9375 0 2.9375 2.84375l0 3.65625q0 1.03125 0.640625 2.328125l-1.96875 0.84375q-0.46875 -0.90625 -0.6875 -1.609375q-1.03125 1.546875 -2.59375 1.546875zm0.78125 -1.90625q0.75 0 1.6875 -0.765625l0 -1.25q-0.984375 -0.21875 -1.59375 -0.21875q-1.171875 0 -1.171875 1.046875q0 0.53125 0.296875 0.859375q0.296875 0.328125 0.78125 0.328125zm6.827881 -7.125l0 -2.03125l2.515625 -0.484375l-0.25 2.515625l2.265625 0l-0.203125 1.53125l-2.125 0l-0.09375 3.90625q0 0.875 0.15625 1.171875q0.171875 0.28125 0.625 0.28125q0.453125 0 1.1875 -0.203125l0.109375 1.3125q-1.21875 1.03125 -2.15625 1.03125q-0.9375 0 -1.53125 -0.671875q-0.59375 -0.6875 -0.59375 -1.796875l0.109375 -2.078125l-0.015625 -2.953125l-1.296875 0l0.21875 -1.53125l1.078125 0zm7.763611 9.03125q-1.109375 0 -1.8125 -0.703125q-0.6875 -0.703125 -0.6875 -1.875q0 -1.1875 1.078125 -2.046875q1.078125 -0.875 2.625 -0.875l1.265625 0l0 -0.328125q0 -0.90625 -0.375 -1.234375q-0.359375 -0.34375 -1.390625 -0.34375q-0.421875 0 -1.015625 0.1875q-0.59375 0.171875 -1.3125 0.546875l-0.546875 -1.484375q0.796875 -0.5625 1.9375 -1.0q1.15625 -0.453125 1.90625 -0.453125q2.9375 0 2.9375 2.84375l0 3.65625q0 1.03125 0.640625 2.328125l-1.96875 0.84375q-0.46875 -0.90625 -0.6875 -1.609375q-1.03125 1.546875 -2.59375 1.546875zm0.78125 -1.90625q0.75 0 1.6875 -0.765625l0 -1.25q-0.984375 -0.21875 -1.59375 -0.21875q-1.171875 0 -1.171875 1.046875q0 0.53125 0.296875 0.859375q0.296875 0.328125 0.78125 0.328125zm7.888489 -8.828125l0.203125 -2.140625l8.859375 0l-0.203125 2.140625l-3.25 -0.265625l-0.0625 6.15625l0.21875 4.84375l-2.609375 0l0.21875 -4.53125l-0.078125 -6.453125l-3.296875 0.25zm9.941895 1.71875l2.265625 -0.484375q0.15625 1.4375 0.21875 2.734375q1.703125 -2.640625 3.1875 -2.640625l-0.203125 2.90625q-1.078125 0 -1.703125 0.203125q-0.625 0.203125 -1.28125 0.78125l0 0.671875l0.203125 4.375l-2.5 0.46875l0.21875 -4.53125q-0.0625 -2.5 -0.40625 -4.484375zm8.719788 9.015625q-1.109375 0 -1.8125 -0.703125q-0.6875 -0.703125 -0.6875 -1.875q0 -1.1875 1.078125 -2.046875q1.078125 -0.875 2.625 -0.875l1.265625 0l0 -0.328125q0 -0.90625 -0.375 -1.234375q-0.359375 -0.34375 -1.390625 -0.34375q-0.421875 0 -1.015625 0.1875q-0.59375 0.171875 -1.3125 0.546875l-0.546875 -1.484375q0.796875 -0.5625 1.9375 -1.0q1.15625 -0.453125 1.90625 -0.453125q2.9375 0 2.9375 2.84375l0 3.65625q0 1.03125 0.640625 2.328125l-1.96875 0.84375q-0.46875 -0.90625 -0.6875 -1.609375q-1.03125 1.546875 -2.59375 1.546875zm0.78125 -1.90625q0.75 0 1.6875 -0.765625l0 -1.25q-0.984375 -0.21875 -1.59375 -0.21875q-1.171875 0 -1.171875 1.046875q0 0.53125 0.296875 0.859375q0.296875 0.328125 0.78125 0.328125zm11.515381 -2.8125q0 -1.28125 -0.234375 -1.703125q-0.21875 -0.4375 -1.046875 -0.4375q-0.8125 0 -1.859375 0.640625l0 1.375l0.203125 4.375l-2.5 0.46875l0.21875 -4.53125q-0.0625 -2.5 -0.40625 -4.484375l2.265625 -0.484375q0.125 1.09375 0.1875 2.109375q0.265625 -0.375 0.625 -0.734375q0.359375 -0.359375 1.125 -0.8125q0.765625 -0.46875 1.609375 -0.46875q0.84375 0 1.421875 0.671875q0.578125 0.65625 0.578125 1.796875l-0.109375 2.09375l0.203125 4.46875l-2.515625 0.46875l0.234375 -4.8125zm7.163513 2.984375q0.96875 0 0.96875 -0.859375q0 -0.296875 -0.421875 -0.5625q-0.421875 -0.265625 -1.03125 -0.515625q-0.609375 -0.265625 -1.21875 -0.59375q-0.59375 -0.328125 -1.015625 -0.90625q-0.421875 -0.578125 -0.421875 -1.328125q0 -1.25 1.09375 -2.171875q1.109375 -0.9375 2.546875 -0.9375q0.671875 0 1.3125 0.15625q0.640625 0.15625 1.234375 0.5l-1.25 2.28125q-0.125 -0.125 -0.328125 -0.28125q-0.203125 -0.171875 -0.78125 -0.4375q-0.5625 -0.28125 -1.0 -0.28125q-0.4375 0 -0.671875 0.203125q-0.234375 0.1875 -0.234375 0.546875q0 0.34375 0.640625 0.6875q0.640625 0.34375 1.40625 0.640625q0.765625 0.28125 1.40625 0.9375q0.65625 0.65625 0.65625 1.578125q0 1.3125 -1.078125 2.296875q-1.078125 0.984375 -2.46875 0.984375q-0.90625 0 -1.6875 -0.390625q-0.765625 -0.390625 -1.09375 -0.78125l-0.34375 -0.390625l1.484375 -1.71875q0.109375 0.15625 0.3125 0.375q0.203125 0.21875 0.8125 0.59375q0.609375 0.375 1.171875 0.375zm9.506775 -10.40625q-0.6875 -0.171875 -1.25 -0.171875q-0.5625 0 -0.8125 0.34375q-0.25 0.328125 -0.25 1.171875l-0.015625 1.765625l2.015625 0l-0.203125 1.53125l-1.8125 0l-0.015625 2.65625l0.203125 4.375l-2.515625 0.46875l0.21875 -4.53125l-0.078125 -2.96875l-1.234375 0l0.203125 -1.53125l1.0 0l-0.015625 -1.421875q0 -1.65625 1.015625 -2.8125q1.03125 -1.171875 2.5 -1.171875q0.78125 0 1.625 0.171875l-0.578125 2.125zm0.10601807 8.234375q0 -2.375 1.28125 -4.03125q1.296875 -1.671875 3.015625 -1.671875q1.734375 0 2.6875 1.125q0.96875 1.109375 0.96875 2.96875q0 2.453125 -1.25 4.09375q-1.234375 1.625 -3.109375 1.625q-1.546875 0 -2.578125 -1.15625q-1.015625 -1.171875 -1.015625 -2.953125zm5.859375 -0.640625q0 -2.703125 -1.84375 -2.703125q-1.921875 0 -1.921875 2.53125q0 1.328125 0.53125 2.078125q0.546875 0.734375 1.4375 0.734375q0.890625 0 1.34375 -0.671875q0.453125 -0.6875 0.453125 -1.96875zm3.4923096 -4.46875l2.265625 -0.484375q0.15625 1.4375 0.21875 2.734375q1.703125 -2.640625 3.1875 -2.640625l-0.203125 2.90625q-1.078125 0 -1.703125 0.203125q-0.625 0.203125 -1.28125 0.78125l0 0.671875l0.203125 4.375l-2.5 0.46875l0.21875 -4.53125q-0.0625 -2.5 -0.40625 -4.484375zm12.266602 4.296875q0 -1.28125 -0.234375 -1.703125q-0.21875 -0.4375 -1.046875 -0.4375q-0.8125 0 -1.859375 0.640625l0 1.375l0.203125 4.375l-2.5 0.46875l0.21875 -4.53125q-0.0625 -2.5 -0.40625 -4.484375l2.265625 -0.484375q0.125 1.09375 0.1875 2.109375q0.265625 -0.375 0.625 -0.734375q0.359375 -0.359375 1.125 -0.8125q0.765625 -0.46875 1.546875 -0.46875q0.78125 0 1.3125 0.515625q0.546875 0.5 0.703125 1.375q1.546875 -1.890625 3.125 -1.890625q1.0 0 1.578125 0.671875q0.578125 0.65625 0.578125 1.796875l-0.109375 2.09375l0.203125 4.46875l-2.515625 0.46875l0.21875 -4.8125q0 -1.28125 -0.234375 -1.703125q-0.21875 -0.4375 -1.03125 -0.4375q-0.796875 0 -1.796875 0.609375l-0.078125 1.40625l0.203125 4.46875l-2.515625 0.46875l0.234375 -4.8125zm11.434082 4.71875q-1.109375 0 -1.8125 -0.703125q-0.6875 -0.703125 -0.6875 -1.875q0 -1.1875 1.078125 -2.046875q1.078125 -0.875 2.625 -0.875l1.265625 0l0 -0.328125q0 -0.90625 -0.375 -1.234375q-0.359375 -0.34375 -1.390625 -0.34375q-0.421875 0 -1.015625 0.1875q-0.59375 0.171875 -1.3125 0.546875l-0.546875 -1.484375q0.796875 -0.5625 1.9375 -1.0q1.15625 -0.453125 1.90625 -0.453125q2.9375 0 2.9375 2.84375l0 3.65625q0 1.03125 0.640625 2.328125l-1.96875 0.84375q-0.46875 -0.90625 -0.6875 -1.609375q-1.03125 1.546875 -2.59375 1.546875zm0.78125 -1.90625q0.75 0 1.6875 -0.765625l0 -1.25q-0.984375 -0.21875 -1.59375 -0.21875q-1.171875 0 -1.171875 1.046875q0 0.53125 0.296875 0.859375q0.296875 0.328125 0.78125 0.328125zm6.827942 -7.125l0 -2.03125l2.515625 -0.484375l-0.25 2.515625l2.265625 0l-0.203125 1.53125l-2.125 0l-0.09375 3.90625q0 0.875 0.15625 1.171875q0.171875 0.28125 0.625 0.28125q0.453125 0 1.1875 -0.203125l0.109375 1.3125q-1.21875 1.03125 -2.15625 1.03125q-0.9375 0 -1.53125 -0.671875q-0.59375 -0.6875 -0.59375 -1.796875l0.109375 -2.078125l-0.015625 -2.953125l-1.296875 0l0.21875 -1.53125l1.078125 0zm8.388611 -0.46875l-0.21875 4.65625l0.203125 4.375l-2.5 0.46875l0.21875 -4.53125l-0.203125 -4.5l2.5 -0.46875zm-2.625 -2.734375q0 -0.625 0.484375 -1.109375q0.484375 -0.5 1.109375 -0.5q0.640625 0 0.96875 0.34375q0.34375 0.34375 0.34375 1.046875q0 0.6875 -0.484375 1.1875q-0.46875 0.484375 -1.09375 0.484375q-0.625 0 -0.984375 -0.40625q-0.34375 -0.421875 -0.34375 -1.046875zm4.114624 8.328125q0 -2.375 1.28125 -4.03125q1.296875 -1.671875 3.015625 -1.671875q1.734375 0 2.6875 1.125q0.96875 1.109375 0.96875 2.96875q0 2.453125 -1.25 4.09375q-1.234375 1.625 -3.109375 1.625q-1.546875 0 -2.578125 -1.15625q-1.015625 -1.171875 -1.015625 -2.953125zm5.859375 -0.640625q0 -2.703125 -1.84375 -2.703125q-1.921875 0 -1.921875 2.53125q0 1.328125 0.53125 2.078125q0.546875 0.734375 1.4375 0.734375q0.890625 0 1.34375 -0.671875q0.453125 -0.6875 0.453125 -1.96875zm9.11731 -0.171875q0 -1.28125 -0.234375 -1.703125q-0.21875 -0.4375 -1.046875 -0.4375q-0.8125 0 -1.859375 0.640625l0 1.375l0.203125 4.375l-2.5 0.46875l0.21875 -4.53125q-0.0625 -2.5 -0.40625 -4.484375l2.265625 -0.484375q0.125 1.09375 0.1875 2.109375q0.265625 -0.375 0.625 -0.734375q0.359375 -0.359375 1.125 -0.8125q0.765625 -0.46875 1.609375 -0.46875q0.84375 0 1.421875 0.671875q0.578125 0.65625 0.578125 1.796875l-0.109375 2.09375l0.203125 4.46875l-2.515625 0.46875l0.234375 -4.8125z" fill-rule="nonzero"/><path fill="#000000" fill-opacity="0.0" d="m844.66144 481.2467l107.40155 0l0 42.015747l-107.40155 0z" fill-rule="evenodd"/><path fill="#000000" d="m860.5677 502.3386l0.1875 0l2.71875 -7.078125l2.578125 0.078125l0.078125 8.015625l0.34375 4.8125l-2.515625 0l0.09375 -4.84375l-0.203125 -4.90625l-2.234375 6.171875l-2.296875 0.109375l-2.09375 -6.28125l-0.171875 4.90625l0.140625 4.84375l-2.3125 0l0.25 -4.53125l0.109375 -8.0l2.96875 -0.46875l2.359375 7.171875zm7.5455933 1.921875q0 -2.375 1.28125 -4.03125q1.296875 -1.671875 3.015625 -1.671875q1.734375 0 2.6875 1.125q0.96875 1.109375 0.96875 2.96875q0 2.453125 -1.25 4.09375q-1.234375 1.625 -3.109375 1.625q-1.546875 0 -2.578125 -1.15625q-1.015625 -1.171875 -1.015625 -2.953125zm5.859375 -0.640625q0 -2.703125 -1.84375 -2.703125q-1.921875 0 -1.921875 2.53125q0 1.328125 0.53125 2.078125q0.546875 0.734375 1.4375 0.734375q0.890625 0 1.34375 -0.671875q0.453125 -0.6875 0.453125 -1.96875zm8.61731 2.71875q-1.453125 1.828125 -2.515625 1.828125q-1.3125 0 -2.171875 -1.078125q-0.84375 -1.09375 -0.84375 -2.78125q0 -2.328125 1.296875 -3.9375q1.296875 -1.609375 3.171875 -1.609375l1.046875 0.15625l0 -0.359375l-0.21875 -4.359375l2.5625 -0.46875l-0.25 9.59375l0 1.640625q0 1.109375 0.5625 2.5625l-2.015625 0.84375q-0.546875 -1.125 -0.625 -2.03125zm-3.4375 -3.0q0 1.1875 0.4375 1.859375q0.4375 0.671875 1.265625 0.671875q0.828125 0 1.71875 -0.671875l0 -4.03125q-1.109375 -0.21875 -1.65625 -0.21875q-0.84375 0 -1.3125 0.59375q-0.453125 0.59375 -0.453125 1.796875zm11.2404175 2.921875q0.546875 0 1.140625 -0.28125q0.59375 -0.28125 0.9375 -0.5625l0.328125 -0.265625l0.859375 1.03125q-0.1875 0.328125 -0.578125 0.734375q-0.390625 0.40625 -0.796875 0.703125q-0.390625 0.28125 -1.0625 0.515625q-0.65625 0.234375 -1.359375 0.234375q-1.515625 0 -2.46875 -1.140625q-0.953125 -1.15625 -0.953125 -2.96875q0 -2.265625 1.328125 -3.984375q1.328125 -1.71875 3.09375 -1.71875q1.359375 0 2.109375 0.765625q0.765625 0.765625 0.765625 2.140625q0 0.828125 -0.28125 1.875l-0.375 0.390625l-4.65625 0.421875q0.3125 2.109375 1.96875 2.109375zm0 -5.78125q-0.8125 0 -1.375 0.671875q-0.5625 0.65625 -0.65625 1.6875l3.171875 -0.40625q0.0625 -0.421875 0.0625 -0.703125q0 -1.25 -1.203125 -1.25zm7.5238037 -6.75l-0.25 9.59375l0.203125 4.375l-2.515625 0.46875l0.234375 -4.53125l-0.234375 -9.4375l2.5625 -0.46875zm4.6575317 4.9375l-0.21875 4.65625l0.203125 4.375l-2.5 0.46875l0.21875 -4.53125l-0.203125 -4.5l2.5 -0.46875zm-2.625 -2.734375q0 -0.625 0.484375 -1.109375q0.484375 -0.5 1.109375 -0.5q0.640625 0 0.96875 0.34375q0.34375 0.34375 0.34375 1.046875q0 0.6875 -0.484375 1.1875q-0.46875 0.484375 -1.09375 0.484375q-0.625 0 -0.984375 -0.40625q-0.34375 -0.421875 -0.34375 -1.046875zm10.098999 7.515625q0 -1.28125 -0.234375 -1.703125q-0.21875 -0.4375 -1.046875 -0.4375q-0.8125 0 -1.859375 0.640625l0 1.375l0.203125 4.375l-2.5 0.46875l0.21875 -4.53125q-0.0625 -2.5 -0.40625 -4.484375l2.265625 -0.484375q0.125 1.09375 0.1875 2.109375q0.265625 -0.375 0.625 -0.734375q0.359375 -0.359375 1.125 -0.8125q0.765625 -0.46875 1.609375 -0.46875q0.84375 0 1.421875 0.671875q0.578125 0.65625 0.578125 1.796875l-0.109375 2.09375l0.203125 4.46875l-2.515625 0.46875l0.234375 -4.8125zm3.6790771 6.5625q0 -1.640625 3.0625 -2.578125q-0.71875 -0.359375 -0.71875 -0.96875q0 -0.234375 0.1875 -0.46875q0.1875 -0.25 0.53125 -0.515625l0 -0.140625q-1.34375 0 -2.140625 -0.75q-0.78125 -0.75 -0.78125 -2.0q0 -1.625 1.3125 -2.828125q1.328125 -1.203125 3.140625 -1.203125q0.46875 0 1.359375 0.1875q0.90625 0.1875 1.765625 0.1875l1.4375 0l-0.1875 1.625l-1.40625 -0.171875q0.1875 0.546875 0.1875 1.234375q0 0.6875 -0.328125 1.375q-0.328125 0.671875 -0.78125 1.09375q-0.453125 0.40625 -0.921875 0.71875q-0.453125 0.296875 -0.78125 0.53125q-0.328125 0.234375 -0.328125 0.421875q0 0.359375 0.75 0.609375q1.984375 0.8125 2.671875 1.375q0.703125 0.546875 0.703125 1.375q0 1.375 -1.390625 2.265625q-1.390625 0.8905945 -3.3125 0.8905945q-1.921875 0 -2.984375 -0.6249695q-1.046875 -0.609375 -1.046875 -1.640625zm5.640625 -7.828125q0 -0.921875 -0.40625 -1.34375q-0.40625 -0.4375 -1.296875 -0.4375q-1.6875 0 -1.6875 1.671875q0 1.671875 1.8125 1.671875q1.578125 0 1.578125 -1.5625zm0.671875 7.21875q0 -0.34375 -0.359375 -0.640625q-0.34375 -0.28125 -1.265625 -0.671875q-1.359375 0.375 -1.875 0.6875q-0.515625 0.328125 -0.515625 0.78125q0 0.46875 0.515625 0.75q0.515625 0.296875 1.421875 0.296875q0.921875 0 1.5 -0.34375q0.578125 -0.328125 0.578125 -0.859375z" fill-rule="nonzero"/><path fill="#000000" fill-opacity="0.0" d="m389.04987 504.6483l122.99213 -1.0078735" fill-rule="evenodd"/><path stroke="#000000" stroke-width="4.0" stroke-linejoin="round" stroke-linecap="butt" d="m389.04987 504.6483l98.99295 -0.81121826" fill-rule="evenodd"/><path fill="#000000" stroke="#000000" stroke-width="4.0" stroke-linecap="butt" d="m488.09695 510.4438l18.097626 -6.7554626l-18.205933 -6.457947z" fill-rule="evenodd"/><path fill="#000000" fill-opacity="0.0" d="m717.04987 488.6483l122.99213 -1.0078735" fill-rule="evenodd"/><path stroke="#000000" stroke-width="4.0" stroke-linejoin="round" stroke-linecap="butt" d="m717.04987 488.6483l98.99292 -0.81121826" fill-rule="evenodd"/><path fill="#000000" stroke="#000000" stroke-width="4.0" stroke-linecap="butt" d="m816.0969 494.4438l18.097656 -6.7554626l-18.205933 -6.457947z" fill-rule="evenodd"/><path fill="#000000" fill-opacity="0.0" d="m717.04987 520.6483l122.99213 -1.0078735" fill-rule="evenodd"/><path stroke="#000000" stroke-width="4.0" stroke-linejoin="round" stroke-linecap="butt" d="m741.0491 520.45166l98.99292 -0.81121826" fill-rule="evenodd"/><path fill="#000000" stroke="#000000" stroke-width="4.0" stroke-linecap="butt" d="m740.99493 513.8449l-18.097656 6.755493l18.205933 6.457947z" fill-rule="evenodd"/><path fill="#f4f3c1" fill-opacity="0.6188" d="m271.04987 76.64829l315.37006 0l0 38.614174l-315.37006 0z" fill-rule="evenodd"/><path stroke="#000000" stroke-width="1.0" stroke-linejoin="round" stroke-linecap="butt" d="m271.04987 76.64829l315.37006 0l0 38.614174l-315.37006 0z" fill-rule="evenodd"/></g></svg>